<svg width="81" height="80" viewBox="0 0 81 80" fill="none" xmlns="http://www.w3.org/2000/svg">
<path d="M40.5 0C32.5888 0 24.8552 2.34595 18.2772 6.7412C11.6992 11.1365 6.57233 17.3836 3.54483 24.6926C0.517325 32.0017 -0.274799 40.0443 1.26861 47.8036C2.81202 55.5628 6.62168 62.6901 12.2158 68.2842C17.8099 73.8783 24.9371 77.688 32.6964 79.2314C40.4556 80.7748 48.4983 79.9826 55.8073 76.9551C63.1164 73.9276 69.3635 68.8007 73.7588 62.2228C78.154 55.6448 80.5 47.9112 80.5 40C80.5 29.3913 76.2857 19.2172 68.7842 11.7157C61.2828 4.21428 51.1087 0 40.5 0ZM40.5 12.0002C42.8734 12.0002 45.1935 12.704 47.167 14.0226C49.1404 15.3412 50.6785 17.2154 51.5868 19.4081C52.495 21.6009 52.7327 24.0137 52.2696 26.3415C51.8066 28.6694 50.6637 30.8076 48.9854 32.4858C47.3072 34.1641 45.1689 35.307 42.8411 35.7701C40.5133 36.2331 38.1005 35.9955 35.9077 35.0872C33.715 34.1789 31.8408 32.6408 30.5222 30.6674C29.2036 28.694 28.4998 26.3739 28.4998 24.0004C28.4998 22.4245 28.8102 20.8641 29.4133 19.4081C30.0163 17.9522 30.9002 16.6293 32.0145 15.515C33.1289 14.4006 34.4518 13.5167 35.9077 12.9137C37.3637 12.3106 38.9241 12.0002 40.5 12.0002ZM40.5 69.769C35.7595 69.7474 31.0958 68.5696 26.9134 66.3377C22.7311 64.1058 19.1565 60.8872 16.4996 56.9611C16.6915 48.9614 32.4991 44.5571 40.5 44.5571C48.5009 44.5571 64.3074 48.9614 64.5004 56.9611C61.8409 60.8849 58.2658 64.1019 54.0841 66.334C49.9025 68.5662 45.2401 69.7463 40.5 69.7724V69.769Z" fill="#CED4DA"/>
</svg>
