<svg width="32" height="32" viewBox="0 0 32 32" fill="none" xmlns="http://www.w3.org/2000/svg">
<path d="M10.6641 21.3333H15.9973M10.6641 14.6666H21.3307" stroke="#495057" stroke-width="1.5" stroke-linecap="round"/>
<path d="M10 4.66663C7.9256 4.72885 6.68881 4.95975 5.83303 5.81632C4.66145 6.98899 4.66145 8.87636 4.66145 12.6511V21.3258C4.66145 25.1006 4.66145 26.988 5.83303 28.1606C7.0046 29.3333 8.89023 29.3333 12.6615 29.3333H19.3281C23.0993 29.3333 24.9849 29.3333 26.1565 28.1606C27.3281 26.988 27.3281 25.1006 27.3281 21.3258V12.6511C27.3281 8.87636 27.3281 6.98899 26.1565 5.81633C25.3008 4.95975 24.064 4.72885 21.9896 4.66663" stroke="#495057" stroke-width="1.5"/>
<path d="M9.99478 4.99996C9.99478 3.71129 11.0395 2.66663 12.3281 2.66663H19.6615C20.9501 2.66663 21.9948 3.71129 21.9948 4.99996C21.9948 6.28863 20.9501 7.33329 19.6615 7.33329H12.3281C11.0395 7.33329 9.99478 6.28863 9.99478 4.99996Z" stroke="#495057" stroke-width="1.5" stroke-linejoin="round"/>
</svg>
