<svg width="24" height="24" viewBox="0 0 24 24" fill="none" xmlns="http://www.w3.org/2000/svg">
<path d="M9 4V16C9 16.5304 9.21071 17.0391 9.58579 17.4142C9.96086 17.7893 10.4696 18 11 18H19C19.5304 18 20.0391 17.7893 20.4142 17.4142C20.7893 17.0391 21 16.5304 21 16V7.242C21 6.97556 20.9467 6.71181 20.8433 6.46624C20.7399 6.22068 20.5885 5.99824 20.398 5.812L17.083 2.57C16.7094 2.20466 16.2076 2.00007 15.685 2H11C10.4696 2 9.96086 2.21071 9.58579 2.58579C9.21071 2.96086 9 3.46957 9 4Z" stroke="#495057" stroke-width="1.2" stroke-linecap="round" stroke-linejoin="round"/>
<path d="M17 18V20C17 20.5304 16.7893 21.0391 16.4142 21.4142C16.0391 21.7893 15.5304 22 15 22H7C6.46957 22 5.96086 21.7893 5.58579 21.4142C5.21071 21.0391 5 20.5304 5 20V9C5 8.46957 5.21071 7.96086 5.58579 7.58579C5.96086 7.21071 6.46957 7 7 7H9" stroke="#495057" stroke-width="1.2" stroke-linecap="round" stroke-linejoin="round"/>
</svg>
