<svg width="91" height="91" viewBox="0 0 91 91" fill="none" xmlns="http://www.w3.org/2000/svg">
<g clip-path="url(#clip0_5482_3905)">
<path d="M26.8336 42.8555C25.5892 41.6111 23.5669 41.6111 22.3225 42.8555C21.078 44.1 21.078 46.1222 22.3225 47.3667L37.0225 62.0667C37.6447 62.6889 38.4225 63 39.278 63C39.3558 63 39.3558 63 39.4336 63C40.2892 62.9222 41.1447 62.5333 41.7669 61.8333L78.5558 17.7333C79.6447 16.4111 79.4892 14.3889 78.1669 13.2222C76.8447 12.1333 74.8225 12.2889 73.6558 13.6111L39.0447 55.0667L26.8336 42.8555Z" fill="#38D9A9"/>
<path d="M69.3001 7.23331C51.4112 -3.96669 28.4668 -1.32225 13.5334 13.6111C-4.04435 31.1889 -4.04435 59.8889 13.5334 77.4666C22.3223 86.2555 33.9112 90.6889 45.4223 90.6889C56.9334 90.6889 68.5223 86.2555 77.3112 77.4666C92.3223 62.4555 94.889 39.4333 83.6112 21.5444C82.6779 20.0666 80.7334 19.6 79.2557 20.5333C77.7779 21.4666 77.3112 23.4111 78.2445 24.8889C87.9668 40.2889 85.7112 60.0444 72.8001 72.9555C57.7112 88.0444 33.0557 88.0444 17.9668 72.9555C2.87788 57.8666 2.87788 33.2111 17.9668 18.1222C30.8779 5.28887 50.5557 3.03331 65.9557 12.6C67.4334 13.5333 69.3779 13.0666 70.3112 11.5889C71.2445 10.1111 70.7779 8.16664 69.3001 7.23331Z" fill="#38D9A9"/>
</g>
<defs>
<clipPath id="clip0_5482_3905">
<rect width="91" height="91" fill="white"/>
</clipPath>
</defs>
</svg>
