<svg width="16" height="16" viewBox="0 0 16 16" fill="none" xmlns="http://www.w3.org/2000/svg">
<path d="M7.99989 14.6667C4.31799 14.6667 1.33325 11.6819 1.33325 8.00004C1.33325 4.31814 4.31802 1.33337 7.99989 1.33337C10.985 1.33337 13.4837 3.2953 14.3332 6.00004H12.6666" stroke="#141B34" stroke-linecap="round" stroke-linejoin="round"/>
<path d="M8 5.33337V8.00004L9.33333 9.33337" stroke="#141B34" stroke-linecap="round" stroke-linejoin="round"/>
<path d="M14.6367 8.66667C14.6565 8.44727 14.6667 8.22487 14.6667 8M10 14.6667C10.2277 14.5917 10.4502 14.5043 10.6667 14.4052M13.8604 11.3333C13.989 11.0856 14.1037 10.8289 14.2033 10.5641M12.1283 13.4861C12.3579 13.2961 12.5754 13.0905 12.7792 12.871" stroke="#141B34" stroke-linecap="round" stroke-linejoin="round"/>
</svg>
