<svg width="24" height="24" viewBox="0 0 24 24" fill="none" xmlns="http://www.w3.org/2000/svg">
<path d="M9 19.385V10.692L7.267 8.096C7.17633 7.95533 7.109 7.81233 7.065 7.667C7.02167 7.52233 7 7.369 7 7.207V4.617C7 4.169 7.15733 3.78767 7.472 3.473C7.78667 3.15833 8.168 3.00067 8.616 3H15.385C15.8317 3 16.2127 3.15733 16.528 3.472C16.8427 3.78667 17 4.168 17 4.616V7.208C17 7.36933 16.9783 7.52267 16.935 7.668C16.891 7.812 16.8237 7.95467 16.733 8.096L15 10.692V19.385C15 19.8317 14.8427 20.2127 14.528 20.528C14.2133 20.8427 13.8323 21 13.385 21H10.615C10.1683 21 9.78733 20.8427 9.472 20.528C9.15733 20.2133 9 19.8323 9 19.385ZM12 15C11.7247 15 11.489 14.9023 11.293 14.707C11.097 14.5117 10.9993 14.276 11 14C11.0007 13.724 11.0983 13.4883 11.293 13.293C11.4877 13.0977 11.7233 13 12 13C12.2767 13 12.5123 13.0977 12.707 13.293C12.9017 13.4883 12.9993 13.724 13 14C13.0007 14.276 12.903 14.5117 12.707 14.707C12.511 14.9023 12.2753 15 12 15ZM8 5.5H16V4.615C16 4.43567 15.9423 4.28833 15.827 4.173C15.7117 4.05767 15.5643 4 15.385 4H8.615C8.43567 4 8.28833 4.05767 8.173 4.173C8.05767 4.28833 8 4.436 8 4.616V5.5ZM16 6.5H8V7.4L10 10.4V19.385C10 19.5643 10.0577 19.7117 10.173 19.827C10.2883 19.9423 10.436 20 10.616 20H13.385C13.5643 20 13.7117 19.9423 13.827 19.827C13.9423 19.7117 14 19.5643 14 19.385V10.4L16 7.4V6.5Z" fill="white"/>
</svg>
