<svg width="60" height="60" viewBox="0 0 60 60" fill="none" xmlns="http://www.w3.org/2000/svg">
<path d="M30 55C43.8071 55 55 43.8071 55 30C55 16.1929 43.8071 5 30 5C16.1929 5 5 16.1929 5 30C5 43.8071 16.1929 55 30 55Z" stroke="#FAB005" stroke-width="3" stroke-linecap="round" stroke-linejoin="round"/>
<path d="M22.7251 22.5C23.3129 20.8291 24.473 19.4202 26 18.5228C27.527 17.6254 29.3223 17.2973 31.068 17.5967C32.8137 17.8962 34.3971 18.8038 35.5378 20.1588C36.6784 21.5138 37.3027 23.2288 37.3001 25C37.3001 30 29.8001 32.5 29.8001 32.5" stroke="#FAB005" stroke-width="3" stroke-linecap="round" stroke-linejoin="round"/>
<path d="M30 40V41.25" stroke="#FAB005" stroke-width="3" stroke-linecap="round" stroke-linejoin="round"/>
</svg>
