<svg width="60" height="60" viewBox="0 0 60 60" fill="none" xmlns="http://www.w3.org/2000/svg">
<path d="M7.66771 5.45771C7.52259 5.3126 7.35032 5.19749 7.16073 5.11895C6.97113 5.04042 6.76792 5 6.56271 5C6.35749 5 6.15428 5.04042 5.96468 5.11895C5.77509 5.19749 5.60282 5.3126 5.45771 5.45771C5.16464 5.75077 5 6.14825 5 6.56271C5 6.76792 5.04042 6.97113 5.11895 7.16073C5.19749 7.35032 5.3126 7.5226 5.45771 7.66771L12.2915 14.5002C9.97434 17.9802 8.74191 22.0694 8.75021 26.2502C8.74139 31.2631 10.5134 36.1161 13.7502 39.944L13.7765 39.9752L13.7977 40.0002H13.7502L26.3602 53.3877C26.8277 53.8839 27.3916 54.2793 28.0175 54.5495C28.6434 54.8197 29.3179 54.9592 29.9996 54.9592C30.6813 54.9592 31.3558 54.8197 31.9817 54.5495C32.6075 54.2793 33.1715 53.8839 33.639 53.3877L42.1465 44.3565L52.334 54.5427C52.6287 54.8272 53.0235 54.9846 53.4331 54.9809C53.8428 54.9773 54.2347 54.8128 54.5243 54.523C54.8139 54.2333 54.9781 53.8413 54.9816 53.4316C54.985 53.022 54.8274 52.6273 54.5427 52.3327L7.66771 5.45771ZM11.8752 26.2502C11.8752 22.7727 12.8552 19.5227 14.554 16.7627L22.8965 25.1065C22.4498 26.4306 22.382 27.8531 22.7006 29.2137C23.0192 30.5743 23.7116 31.8188 24.6997 32.8069C25.6879 33.795 26.9324 34.4874 28.293 34.8061C29.6536 35.1247 31.0761 35.0568 32.4002 34.6102L39.9365 42.1452L31.3652 51.244C31.1899 51.4301 30.9784 51.5784 30.7436 51.6798C30.5089 51.7812 30.2559 51.8335 30.0002 51.8335C29.7445 51.8335 29.4915 51.7812 29.2568 51.6798C29.022 51.5784 28.8105 51.4301 28.6352 51.244L16.564 38.4302L16.179 37.9765C13.3935 34.705 11.8674 30.5468 11.8752 26.2502ZM18.704 12.0752L16.4827 9.85271C20.2851 6.70895 25.0665 4.99255 30.0002 5.00021C41.7365 5.00021 51.2502 14.514 51.2502 26.2502C51.2586 31.1843 49.5416 35.966 46.3965 39.7677L44.1752 37.5465C46.739 34.3402 48.1324 30.3554 48.1252 26.2502C48.1252 16.2402 40.0102 8.12521 30.0002 8.12521C25.8952 8.11904 21.9107 9.51232 18.704 12.0752ZM29.7615 23.1315L27.1802 20.5515C28.547 19.9948 30.0476 19.8537 31.4942 20.1459C32.9408 20.4381 34.269 21.1506 35.3125 22.1941C36.3561 23.2377 37.0685 24.5659 37.3607 26.0125C37.6529 27.459 37.5119 28.9597 36.9552 30.3265L34.3752 27.7452C34.3794 27.6644 34.3815 27.5827 34.3815 27.5002C34.3815 26.905 34.2602 26.316 34.0248 25.7693C33.7894 25.2226 33.4449 24.7297 33.0124 24.3208C32.5799 23.9118 32.0685 23.5954 31.5096 23.3909C30.9506 23.1864 30.3557 23.0981 29.7615 23.1315Z" fill="#FAB005"/>
</svg>
