<svg width="70" height="65" viewBox="0 0 70 65" fill="none" xmlns="http://www.w3.org/2000/svg">
<path fill-rule="evenodd" clip-rule="evenodd" d="M53.4221 5.95579C60.4888 16.5317 35.2642 35.7291 27.939 41.1513C20.2814 46.8195 11.6862 49.7208 4.02857 42.1953C-4.72903 33.5886 9.21971 27.4356 15.6072 23.3933C24.2394 17.9263 32.4802 10.3115 40.7064 5.42637C44.6202 3.09925 50.1804 1.51819 53.4221 5.95579Z" fill="#FFF2F1"/>
<path fill-rule="evenodd" clip-rule="evenodd" d="M58.6061 9.60278C66.5885 8.9762 72.001 17.9336 66.6106 25.3993C63.8043 29.3 50.7342 42.695 46.8944 45.9393C38.6166 52.741 18.1032 64.294 7.62502 56.9849C1.75448 52.8902 2.04236 46.3791 7.97941 42.1951C16.8257 35.9602 25.4432 36.6313 34.8065 27.8679C41.179 21.9015 49.7226 10.826 58.6061 9.60278Z" fill="#FFF2F1"/>
<path fill-rule="evenodd" clip-rule="evenodd" d="M66.1468 30.4413C71.1679 40.3905 47.228 54.3448 40.2943 58.2605C33.043 62.3549 25.2673 63.951 19.4115 56.5899C12.7212 48.1621 25.4813 44.3286 31.4625 41.5021C39.5335 37.6833 47.5012 31.9629 55.1586 28.6068C58.8067 27.0029 63.7984 26.2349 66.1468 30.4413Z" fill="#FFF2F1"/>
<path d="M24.3033 43.665L24.4668 43.8548L24.6273 44.0445L24.7908 44.2342L24.9529 44.4225L25.1164 44.6107L25.2801 44.7974L25.442 44.9811L25.6071 45.1662L25.7691 45.3529L25.9265 45.529C26.0561 45.6739 26.2921 45.6385 26.3787 45.4626C26.4249 45.3653 26.4095 45.2465 26.3355 45.1648L26.1812 44.9905L26.0176 44.8068L25.8557 44.6217L25.6938 44.435L25.5303 44.2499L25.3683 44.0648L25.2048 43.8765L25.0429 43.6868L24.8855 43.5001L24.722 43.3102L24.5615 43.1205C24.5183 43.0681 24.4596 43.0372 24.3948 43.0265C24.3979 42.9633 24.3748 42.9 24.3315 42.8475L24.2421 42.7395L24.08 42.5498L23.9227 42.3585L23.7668 42.1656L23.6095 41.9759L23.4568 41.7846L23.2993 41.5949L23.1434 41.402L22.9907 41.2123L22.8364 41.0194L22.6205 40.7492C22.5325 40.6366 22.3706 40.6136 22.2501 40.6982C22.122 40.7894 22.0958 40.9683 22.1931 41.0902L22.4076 41.3618L22.5619 41.5547L22.7178 41.746L22.8721 41.9389L23.0294 42.1302L23.1869 42.3231L23.3458 42.5159L23.5031 42.7074L23.6606 42.9003L23.8209 43.0916L23.9121 43.2011C23.9568 43.2551 24.017 43.2845 24.0802 43.2938C24.0786 43.3556 24.0972 43.4203 24.1419 43.4743L24.3033 43.665ZM11.6528 27.1448C11.3673 26.8084 11.2486 26.3888 11.284 25.9783C11.3226 25.5709 11.514 25.1743 11.8534 24.8905C11.8858 24.8597 11.9214 24.8318 11.9584 24.8087L11.9104 24.7052L11.8287 24.5263L11.7469 24.3458L11.6666 24.1683L11.5864 23.9893L11.5078 23.8103L11.4291 23.6314L11.3519 23.4539L11.2764 23.2765L11.2008 23.0991L11.1267 22.9232L11.0543 22.7489L10.9801 22.573L10.9446 22.4897C10.8612 22.2784 11.0541 22.0623 11.2778 22.1225C11.3581 22.1456 11.4197 22.2026 11.4521 22.2798L11.4861 22.3616L11.5586 22.5344L11.6312 22.7087L11.7053 22.8846L11.7793 23.0605L11.8549 23.2349L11.9304 23.4108L12.0076 23.5867L12.0863 23.7625L12.1651 23.9399L12.2437 24.1158L12.3238 24.2948L12.4072 24.4739L12.4519 24.5681C12.6402 24.5141 12.8347 24.4971 13.026 24.5093C13.4348 24.5433 13.8283 24.73 14.1122 25.068C14.396 25.4028 14.5165 25.8239 14.4794 26.2329C14.444 26.6402 14.2511 27.0382 13.9101 27.3253C13.8869 27.3438 13.8653 27.3638 13.8391 27.3839L13.9286 27.5521L14.0242 27.7372L14.1215 27.9208L14.2233 28.1043L14.3222 28.291L14.4224 28.4762L14.5227 28.6629L14.626 28.848L14.728 29.0316L14.8345 29.2183L14.9378 29.4065L15.0258 29.5624C15.0736 29.6427 15.0705 29.7429 15.0274 29.8263C14.9194 30.013 14.6556 30.0176 14.549 29.834L14.4595 29.6766L14.3546 29.4883L14.2512 29.3016L14.1477 29.1133L14.0444 28.9266L13.9425 28.7399L13.8405 28.5532L13.7402 28.3681L13.6399 28.183L13.5411 27.9963L13.444 27.8128L13.3498 27.6353C13.1508 27.6971 12.9441 27.7187 12.7388 27.7017C12.3302 27.6694 11.9366 27.4812 11.6528 27.1448ZM12.7869 27.1603C13.0585 27.1818 13.3362 27.0986 13.5599 26.9103C13.7851 26.7206 13.9132 26.4613 13.9364 26.1913C13.9596 25.9214 13.8809 25.6436 13.6942 25.4213C13.5075 25.2008 13.2452 25.0757 12.9768 25.0557C12.7069 25.0326 12.429 25.1143 12.2038 25.3042C11.9801 25.4925 11.8536 25.7547 11.829 26.0232C11.8058 26.2916 11.8845 26.5694 12.0712 26.7915C12.2606 27.0136 12.5199 27.1386 12.7869 27.1603ZM20.7699 38.3357L20.6264 38.1443L20.4859 37.9514L20.3456 37.7601L20.2037 37.5688L20.0663 37.3759L19.9274 37.183L19.7885 36.9933L19.6542 36.8004L19.5185 36.6075L19.3796 36.4131C19.2655 36.2496 19.0202 36.2634 18.9183 36.4347C18.8659 36.5272 18.8689 36.6415 18.9291 36.7277L19.071 36.9268L19.2083 37.1181L19.3456 37.3126L19.4829 37.5055L19.6234 37.6983L19.7608 37.8898L19.9027 38.0827L20.0432 38.277L20.1867 38.4699L20.3302 38.6628L20.5291 38.9329C20.6542 39.0979 20.9071 39.0685 20.9951 38.882C21.0398 38.791 21.029 38.6845 20.9705 38.6043L20.7699 38.3357ZM17.6965 33.9337L17.5731 33.7408L17.4482 33.5525L17.3263 33.3628L17.2043 33.1715L17.084 32.9818L16.9637 32.7921L16.8417 32.6022L16.726 32.4125L16.6073 32.2228L16.4915 32.0345L16.4036 31.891C16.3588 31.8216 16.2863 31.7753 16.2015 31.7645C15.9762 31.7383 15.8173 31.9867 15.9346 32.1796L16.0242 32.3231L16.1415 32.5144L16.2602 32.7057L16.3806 32.8954L16.4993 33.0867L16.6212 33.278L16.7446 33.4693L16.8649 33.659L16.9883 33.8519L17.1132 34.0432L17.2382 34.2345L17.3987 34.4769C17.5128 34.6496 17.7674 34.6342 17.8662 34.4537C17.9141 34.3628 17.9094 34.2608 17.8554 34.1745L17.6965 33.9337ZM10.4586 19.6415L10.4016 19.4734L10.3445 19.3098L10.2919 19.1447L10.2364 18.9812L10.187 18.8177L10.1346 18.6542L10.0821 18.4907L10.0327 18.3287L9.98491 18.1668L9.93553 18.0049L9.8876 17.8444L9.84125 17.684L9.79807 17.5251L9.75186 17.3662L9.69932 17.1747C9.6809 17.1054 9.63757 17.0466 9.57741 17.0112C9.36754 16.8863 9.10988 17.0806 9.17163 17.3182L9.22561 17.5173L9.27182 17.6778L9.31658 17.8367L9.36293 18.0018L9.4123 18.1653L9.46009 18.3289L9.50946 18.4908L9.562 18.6575L9.61296 18.8226L9.66391 18.9861L9.71948 19.1542L9.77346 19.3209L9.82743 19.4875L9.88444 19.6557L9.94 19.8207L9.97857 19.9332C10.0033 19.995 10.0387 20.0429 10.0959 20.0768C10.3134 20.2079 10.5788 19.9934 10.4971 19.7527L10.4586 19.6415ZM9.0916 14.4587L9.06684 14.3152L9.04223 14.1686L9.01761 14.0235L8.99444 13.88L8.97443 13.7349L8.95442 13.593L8.93427 13.4495L8.91585 13.3076L8.90044 13.1671L8.88346 13.0266L8.86806 12.8861L8.85424 12.7474L8.84028 12.61L8.82804 12.4713L8.81566 12.3355L8.80487 12.1998L8.79565 12.0655L8.78644 11.9312L8.78486 11.8726C8.78025 11.8063 8.75406 11.7477 8.70929 11.6997C8.53181 11.5207 8.22478 11.655 8.23874 11.9064L8.24176 11.9696L8.25098 12.1054L8.26019 12.2459L8.27242 12.3863L8.28164 12.5268L8.2956 12.6673L8.30956 12.8077L8.32338 12.9496L8.33878 13.0947L8.35735 13.2352L8.37275 13.3833L8.39118 13.5268L8.41277 13.6718L8.43594 13.8184L8.45595 13.9651L8.47913 14.1116L8.50072 14.2613L8.52691 14.411L8.55153 14.5592L8.56851 14.6425C8.58075 14.7197 8.62551 14.7844 8.69187 14.8276C8.89397 14.9465 9.14543 14.7736 9.10686 14.5422L9.0916 14.4587ZM8.86619 9.06473L8.88159 8.949L8.90016 8.83629L8.91714 8.72215L8.93413 8.61261L8.95428 8.4999L8.97587 8.39036L8.99588 8.28082L9.02064 8.1743L9.04381 8.06634L9.06843 7.95997L9.09477 7.85504L9.1224 7.75169L9.14875 7.64675L9.17653 7.5434L9.20733 7.44322L9.23813 7.34289L9.27052 7.24271L9.30449 7.1454L9.33688 7.04522L9.37243 6.94949L9.40799 6.85392L9.4434 6.75661L9.48053 6.66406L9.49752 6.63167C9.52372 6.5669 9.52688 6.49737 9.50371 6.4326C9.42036 6.19811 9.09491 6.19351 8.99444 6.42022L8.97745 6.46196L8.93571 6.56215L8.89713 6.66247L8.85841 6.76438L8.82142 6.86774L8.78443 6.97109L8.74887 7.07746L8.71807 7.18398L8.68252 7.29193L8.65171 7.39989L8.62235 7.50799L8.59298 7.61753L8.5652 7.72707L8.53584 7.8382L8.51266 7.95234L8.48488 8.06491L8.46329 8.17761L8.44026 8.29176L8.41867 8.40749L8.39708 8.52466L8.37707 8.64183L8.35692 8.76072L8.33993 8.87804L8.32611 8.99996L8.30913 9.13728C8.29833 9.21904 8.32611 9.29921 8.38312 9.3578C8.54361 9.52146 8.82128 9.42415 8.84906 9.19888L8.86619 9.06473ZM10.9631 4.4436L11.0311 4.37883L11.1005 4.31564L11.1698 4.25388L11.2424 4.19213L11.3134 4.13196L11.3858 4.07496L11.4599 4.0148L11.5355 3.95923L11.611 3.90526L11.6882 3.85286L11.7637 3.79888L11.8439 3.74793L11.9211 3.69697L12.0013 3.64602L12.083 3.60125L12.1648 3.55332L12.2481 3.50855L12.3299 3.46378L12.4132 3.42362L12.498 3.37886L12.5844 3.3387L12.6709 3.29854L12.7604 3.26155L12.8484 3.22441L12.9379 3.189L13.0274 3.15344L13.117 3.11962L13.1649 3.10263C13.2311 3.08104 13.2836 3.03786 13.3176 2.97611C13.4364 2.75703 13.2297 2.507 12.992 2.5889L12.938 2.60747L12.8391 2.64446L12.742 2.68002L12.6447 2.72018L12.5491 2.76019L12.455 2.80035L12.3594 2.84656L12.2652 2.88974L12.1743 2.93292L12.0833 2.98244L11.9922 3.02865L11.9012 3.07802L11.8117 3.12897L11.7237 3.18295L11.6358 3.23535L11.5493 3.28933L11.4645 3.34647L11.3797 3.40347L11.2948 3.46062L11.213 3.52539L11.1313 3.58556L11.0495 3.64875L10.9708 3.71352L10.892 3.77672L10.8134 3.8461L10.7363 3.91432L10.6623 3.98227L10.5867 4.05323L10.5697 4.06863C10.5266 4.11037 10.4972 4.16435 10.491 4.22452C10.4478 4.48059 10.7549 4.63807 10.9462 4.46059L10.9631 4.4436ZM15.8711 2.66001L15.9821 2.65843L16.0963 2.66001L16.212 2.66159L16.3261 2.66318L16.4419 2.66937L16.5592 2.67397L16.6749 2.67858L16.7938 2.68635L16.911 2.69556L17.0297 2.70478L17.1485 2.71557L17.2688 2.72795L17.3907 2.74033L17.5111 2.75573L17.633 2.76955L17.7579 2.78495L17.8829 2.80194L18.0062 2.82194L18.1296 2.84195L18.2561 2.8621L18.3827 2.8837L18.4258 2.89291C18.506 2.90687 18.5801 2.8883 18.6449 2.83735C18.83 2.6924 18.7591 2.39919 18.5292 2.356L18.483 2.34837L18.3518 2.3252L18.2223 2.30361L18.0942 2.28216L17.9646 2.26518L17.8365 2.24661L17.7084 2.22818L17.5819 2.21278L17.457 2.19882L17.3304 2.18486L17.2055 2.17248L17.079 2.16024L16.957 2.15103L16.8337 2.14326L16.7118 2.13548L16.5899 2.13088L16.4679 2.1231L16.3476 2.1185L16.2257 2.11548L16.1068 2.11389L15.9896 2.11548H15.8693L15.7628 2.12008C15.5638 2.12008 15.4341 2.32218 15.5143 2.50426C15.5607 2.60157 15.6547 2.66318 15.7642 2.66318L15.8711 2.66001ZM21.1651 3.60111L21.307 3.64904L21.4443 3.69683L21.5848 3.74303L21.7251 3.79241L21.864 3.84178L22.0076 3.89576L22.1465 3.94671L22.29 4.00069L22.4319 4.05625L22.5754 4.11181L22.7189 4.16738L22.8624 4.22596L23.0075 4.28454L23.1525 4.34471L23.2974 4.40646L23.4441 4.46821L23.5505 4.51298C23.6122 4.54076 23.6832 4.54235 23.748 4.52075C23.9826 4.4328 23.9964 4.11196 23.7696 4.01149L23.6646 3.9683L23.5149 3.90353L23.3668 3.84178L23.2203 3.78161L23.0737 3.72144L22.9256 3.66127L22.7805 3.60427L22.6338 3.54713L22.4889 3.49157L22.3454 3.43759L22.2003 3.38202L22.0552 3.32963L21.9103 3.27867L21.7683 3.2293L21.6264 3.17835L21.4829 3.13056L21.344 3.08421L21.2035 3.03944C21.0508 2.98705 20.8857 3.08119 20.8503 3.23851C20.8209 3.37742 20.895 3.51316 21.0292 3.55792L21.1651 3.60111ZM26.141 5.76125L26.2937 5.84143L26.4466 5.92477L26.6009 6.00811L26.7568 6.09289L26.9111 6.1794L27.067 6.26591L27.2213 6.35069L27.3788 6.44023L27.5345 6.5312L27.6904 6.61915L27.8477 6.71329L28.0036 6.80426L28.1641 6.89839L28.3368 7.00175C28.502 7.10207 28.7179 7.00477 28.752 6.81347C28.769 6.70249 28.721 6.59453 28.6255 6.5358L28.445 6.42929L28.286 6.33515L28.1271 6.24101L27.9698 6.14845L27.8109 6.05748L27.652 5.96637L27.4946 5.87698L27.3388 5.78903L27.1814 5.70108L27.0225 5.61472L26.8666 5.52821L26.7107 5.44645L26.5564 5.36167L26.4023 5.27832L26.2402 5.19498C26.0597 5.10084 25.842 5.23197 25.8374 5.43565C25.839 5.539 25.8946 5.63156 25.9841 5.67949L26.141 5.76125ZM30.7158 8.51991L30.8777 8.62945L31.0398 8.73899L31.2033 8.85155L31.3654 8.96267L31.5273 9.0738L31.691 9.18953L31.8545 9.30526L32.015 9.42099L32.1785 9.53672L32.3436 9.65561L32.5072 9.77437L32.6723 9.8947L32.8326 10.0119C32.8882 10.0536 32.9575 10.072 33.0285 10.0612C33.2708 10.0289 33.3541 9.71722 33.1581 9.57054L32.9961 9.45337L32.831 9.33304L32.6661 9.2127L32.5024 9.09381L32.3374 8.97664L32.1708 8.85947L32.0088 8.74374L31.8437 8.62642L31.6788 8.51372L31.5151 8.40115L31.3516 8.28859L31.1879 8.17905L31.026 8.06793L30.9287 8.00157C30.8593 7.95536 30.776 7.94299 30.6958 7.9676C30.4751 8.03554 30.4303 8.324 30.6186 8.45355L30.7158 8.51991ZM35.1456 11.7894L35.3122 11.9267L35.4788 12.061L35.6438 12.1968L35.8105 12.3325L35.977 12.4698L36.1453 12.6056L36.3088 12.7461L36.4769 12.8834L36.642 13.0253L36.8102 13.1658L37.0648 13.3834C37.2177 13.513 37.452 13.4404 37.506 13.2445C37.5338 13.1456 37.4999 13.0362 37.4228 12.9699L37.1667 12.7508L36.9969 12.6073L36.8303 12.467L36.662 12.325L36.4955 12.1861L36.329 12.0456L36.1591 11.9083L35.9926 11.7726L35.8229 11.6353L35.6562 11.501L35.4925 11.3652L35.3214 11.2311C35.2596 11.1801 35.1779 11.1631 35.1007 11.1771C34.8708 11.2234 34.7983 11.5149 34.9772 11.66L35.1456 11.7894ZM39.313 15.3829L39.4812 15.5388L39.6478 15.6946L39.8128 15.8505L39.9795 16.0064L40.146 16.1637L40.3143 16.3212L40.4808 16.4801L40.6491 16.6421L40.8141 16.8025L41.0563 17.0371C41.1087 17.0881 41.1751 17.1157 41.2476 17.1157C41.49 17.1127 41.615 16.8163 41.4421 16.6452L41.1968 16.409L41.0271 16.2486L40.862 16.0865L40.6923 15.9262L40.5256 15.7657L40.3575 15.6084L40.1909 15.451L40.0227 15.2937L39.8545 15.1378L39.6863 14.9819L39.4626 14.7767C39.3113 14.6379 39.0676 14.7103 39.0121 14.9078C38.9843 15.0051 39.0151 15.1099 39.0891 15.1778L39.313 15.3829ZM43.1409 19.1338L43.306 19.3051L43.471 19.4778L43.6346 19.6523L43.8012 19.8266L43.9648 20.0025L44.1314 20.1784L44.295 20.3543L44.46 20.5316L44.6221 20.7091L44.8242 20.9266C44.9537 21.0701 45.1852 21.0331 45.2715 20.8618C45.3209 20.7601 45.3023 20.6397 45.2298 20.558L45.0277 20.3389L44.8596 20.1584L44.6959 19.9795L44.531 19.8034L44.366 19.6261L44.1993 19.4502L44.0343 19.2759L43.8692 19.1L43.7027 18.9272L43.536 18.7529L43.3649 18.5739C43.2229 18.4303 42.9807 18.4859 42.9081 18.6742C42.8756 18.7729 42.8958 18.8793 42.9683 18.9549L43.1409 19.1338ZM46.7422 23.0883L46.9043 23.2766L47.0646 23.4663L47.2251 23.6546L47.3871 23.8459L47.5445 24.0356L47.708 24.2269L47.867 24.4168L48.0243 24.6081L48.1832 24.7978L48.3667 25.0215C48.4069 25.074 48.4625 25.1048 48.5288 25.1172C48.7787 25.1588 48.9468 24.8703 48.7896 24.6774L48.606 24.4506L48.447 24.2577L48.2866 24.0664L48.1276 23.8735L47.9671 23.6822L47.8052 23.4925L47.6431 23.2996L47.4828 23.1099L47.3191 22.9202L47.1572 22.7303L47.04 22.593C46.983 22.5328 46.9105 22.4989 46.8286 22.4989C46.5985 22.5005 46.4706 22.7751 46.6217 22.9494L46.7422 23.0883ZM50.1644 27.2867L50.3111 27.478L50.4576 27.6725L50.6043 27.8622L50.7494 28.0551L50.8912 28.2448L51.0363 28.4377L51.1798 28.6305L51.3203 28.8203L51.4638 29.0131L51.6011 29.2046L51.6767 29.3065C51.7892 29.4624 52.0191 29.453 52.1256 29.2957C52.1888 29.1985 52.1874 29.0766 52.1195 28.9856L52.0453 28.8791L51.9048 28.6878L51.7629 28.4949L51.6164 28.3021L51.4759 28.1092L51.3324 27.9163L51.1843 27.7234L51.0392 27.5305L50.8941 27.3376L50.7461 27.1432L50.598 26.9519L50.4854 26.8084C50.4438 26.7498 50.3775 26.7142 50.3049 26.7034C50.0641 26.6741 49.9053 26.9487 50.0533 27.1416L50.1644 27.2867ZM53.36 31.6948L53.4911 31.8861L53.6192 32.0759L53.7473 32.2672L53.8738 32.4585L54.0019 32.6513L54.1269 32.8411L54.2534 33.0324L54.3768 33.2207L54.5001 33.412L54.6222 33.6033L54.7317 33.7746C54.8397 33.9412 55.0819 33.9427 55.1915 33.776C55.2501 33.6835 55.2532 33.5725 55.1961 33.4784L55.0818 33.3025L54.9599 33.1142L54.8365 32.9213L54.71 32.7284L54.585 32.5386L54.4585 32.3457L54.3304 32.1544L54.2023 31.9615L54.0742 31.7718L53.9431 31.5789L53.8103 31.386L53.6916 31.2087C53.6036 31.0791 53.4247 31.0528 53.2982 31.1469C53.1841 31.2363 53.1577 31.3984 53.2396 31.5172L53.36 31.6948ZM56.2543 36.2497L56.364 36.4364L56.4736 36.6261L56.5847 36.8128L56.6911 36.9995L56.7974 37.1862L56.904 37.3745L57.0103 37.5596L57.1153 37.7463L57.2188 37.9331L57.3237 38.1182L57.4256 38.3033L57.495 38.4299C57.5474 38.5287 57.6507 38.5796 57.7633 38.5688C57.9578 38.5472 58.0659 38.3373 57.9747 38.1644L57.9054 38.0363L57.8004 37.8528L57.6985 37.6645L57.5921 37.4762L57.4872 37.2878L57.3808 37.1011L57.2729 36.9128L57.1679 36.7246L57.057 36.5363L56.9474 36.3466L56.8379 36.1583L56.7268 35.9686L56.625 35.7987C56.568 35.7032 56.4629 35.6536 56.3534 35.6677C56.1589 35.6985 56.0571 35.9114 56.1543 36.0796L56.2543 36.2497ZM58.8558 41.0528L58.9452 41.2333L59.0317 41.4154L59.1197 41.5959L59.206 41.7749L59.2925 41.9539L59.3743 42.1344L59.4591 42.3118L59.5394 42.4908L59.6227 42.6697L59.7031 42.847L59.7817 43.0245L59.8944 43.2775C59.9745 43.4534 60.2014 43.4936 60.3403 43.3547C60.419 43.2744 60.4406 43.1572 60.3959 43.0537L60.3603 42.9766L60.2833 42.7992L60.2015 42.6187L60.1198 42.4398L60.0366 42.2609L59.9532 42.0802L59.8699 41.8982L59.7867 41.7192L59.6987 41.5356L59.6122 41.3551L59.5257 41.173L59.4379 40.9909L59.3484 40.8088L59.2358 40.5835C59.2003 40.5156 59.1447 40.4678 59.0707 40.4446C58.8424 40.3798 58.6419 40.6158 58.7451 40.8318L58.8558 41.0528ZM61.0036 45.9794L61.0668 46.1476L61.1315 46.3188L61.1947 46.4855L61.2533 46.6552L61.3151 46.8218L61.3721 46.99L61.4338 47.1581L61.4894 47.3248L61.5465 47.4897L61.6019 47.6548L61.6545 47.8198L61.71 47.9835L61.7624 48.147L61.818 48.3275C61.8782 48.5159 62.1128 48.5775 62.2609 48.4464C62.3411 48.3738 62.3719 48.2629 62.3411 48.1609L62.2825 47.9774L62.2301 47.8123L62.1761 47.6442L62.1206 47.4792L62.065 47.3125L62.0063 47.1428L61.9477 46.9746L61.8907 46.8049L61.8305 46.6352L61.7688 46.4669L61.707 46.2972L61.6438 46.1243L61.5821 45.9546L61.5157 45.7801L61.4402 45.5782C61.4109 45.5026 61.3476 45.4424 61.269 45.4193C61.053 45.3467 60.8461 45.5628 60.9296 45.7758L61.0036 45.9794ZM62.5511 51.0032L62.5867 51.1574L62.6205 51.3103L62.6543 51.4598L62.6853 51.6111L62.7162 51.7624L62.747 51.9121L62.7764 52.0616L62.804 52.2098L62.8318 52.3564L62.858 52.5046L62.8843 52.6511L62.9059 52.7978L62.9305 52.9413L62.9537 53.0864L62.9737 53.2297L62.9923 53.3748L63.0124 53.5168L63.0217 53.5785C63.0463 53.7682 63.253 53.8717 63.4212 53.7806C63.523 53.725 63.5786 53.6185 63.5632 53.5044L63.5554 53.438L63.5338 53.2915L63.5136 53.148L63.4936 52.9983L63.4689 52.8516L63.4457 52.7036L63.4195 52.5555L63.3948 52.4058L63.3671 52.2561L63.3424 52.105L63.3131 51.9537L63.2822 51.8008L63.2512 51.6481L63.2204 51.4952L63.1879 51.3424L63.1541 51.185L63.1201 51.0322L63.0831 50.8747L63.0661 50.8021C63.043 50.7096 62.9828 50.6402 62.895 50.6078C62.6897 50.5369 62.4876 50.7188 62.5338 50.9287L62.5511 51.0032ZM63.1929 56.334L63.1899 56.4574L63.1869 56.5823L63.1809 56.7072L63.1747 56.8306L63.1699 56.9511L63.1623 57.0759L63.1531 57.1948L63.1453 57.3151L63.1345 57.4339L63.1221 57.551L63.1083 57.6668L63.0959 57.7841L63.0805 57.9012L63.0651 58.0138L63.0497 58.1265L63.0345 58.2422L63.0129 58.3532L62.9927 58.4628L62.9742 58.5724L62.9511 58.682L62.9295 58.7899L62.9033 58.9042C62.8863 58.9812 62.8987 59.06 62.9449 59.1232C63.0807 59.316 63.3785 59.2559 63.4355 59.0276L63.4633 58.9011L63.4864 58.7852L63.5096 58.6695L63.5296 58.5537L63.5512 58.4396L63.5712 58.3224L63.5898 58.2035L63.6068 58.0832L63.6238 57.966L63.6376 57.8457L63.6515 57.7236L63.6655 57.6018L63.6779 57.4785L63.6887 57.355L63.6995 57.23L63.7071 57.1051L63.7149 56.977L63.7227 56.8536L63.7273 56.7241L63.7319 56.596L63.7349 56.4664L63.7395 56.3369V56.2597C63.7395 56.1841 63.7117 56.1162 63.6608 56.0638C63.4911 55.8957 63.1963 56.016 63.1916 56.2567L63.1929 56.334ZM61.8815 61.4319L61.8245 61.5122L61.7735 61.5909L61.7196 61.6663L61.664 61.7451L61.6083 61.8206L61.5513 61.8948L61.4927 61.9688L61.4295 62.043L61.3725 62.1124L61.3108 62.1832L61.2476 62.2542L61.1828 62.3206L61.1196 62.3899L61.0517 62.4547L60.9853 62.5195L60.9189 62.5858L60.848 62.649L60.777 62.7108L60.7076 62.771L60.6336 62.8329L60.5625 62.8899L60.4886 62.9469L60.413 63.0024L60.3374 63.0594L60.2587 63.115L60.1831 63.1659L60.1123 63.2123C60.0597 63.2447 60.0212 63.2971 60.0012 63.3572C59.9194 63.6025 60.1879 63.8078 60.4069 63.6706L60.4825 63.6166L60.5689 63.5609L60.6538 63.5007L60.7371 63.4406L60.8188 63.3804L60.8975 63.3172L60.9793 63.254L61.058 63.1861L61.1367 63.1181L61.2123 63.0518L61.2893 62.9824L61.3619 62.913L61.436 62.8405L61.5085 62.7695L61.5795 62.6924L61.6489 62.62L61.7168 62.5428L61.7862 62.4657L61.851 62.3869L61.9157 62.3083L61.9805 62.228L62.0423 62.1477L62.1055 62.0628L62.164 61.981L62.221 61.8946L62.2812 61.8081L62.3382 61.7233L62.3892 61.6416C62.4293 61.5814 62.4433 61.5073 62.4279 61.4347C62.3769 61.2001 62.0637 61.1461 61.931 61.3498L61.8815 61.4319ZM57.5752 64.1707L57.4734 64.1892L57.3716 64.2046L57.2667 64.2199L57.1618 64.2323L57.0584 64.2446L56.9505 64.2554L56.8455 64.2661L56.7376 64.2753L56.6296 64.2845L56.5199 64.2891L56.4104 64.2953L56.3008 64.2983L56.1881 64.3014L56.0756 64.3029L55.9646 64.306L55.8536 64.3044L55.7363 64.3028L55.6206 64.2998L55.508 64.2967L55.3893 64.2906L55.2735 64.2844L55.1562 64.2766L55.0251 64.2688C54.9603 64.2626 54.8924 64.2812 54.84 64.3198C54.6363 64.4711 54.7228 64.7921 54.9727 64.8121L55.1162 64.8213L55.2365 64.829L55.3569 64.8368L55.4802 64.8413L55.6006 64.8443L55.721 64.8491L55.8414 64.8505H55.9617L56.0789 64.8491L56.1962 64.846L56.3134 64.843L56.4291 64.84L56.5463 64.8338L56.6588 64.8276L56.7747 64.8198L56.8888 64.809L56.9998 64.7998L57.1124 64.7874L57.2249 64.7752L57.3346 64.7582L57.4442 64.7443L57.5537 64.7273L57.6634 64.7089L57.7652 64.6903C57.9966 64.6471 58.0752 64.3601 57.8963 64.212C57.8361 64.1596 57.7558 64.1394 57.6774 64.1534L57.5752 64.1707ZM52.272 63.8003L52.1393 63.7647L52.0066 63.7309L51.8724 63.6938L51.7381 63.6552L51.6008 63.6166L51.4665 63.5765L51.3308 63.5379L51.1951 63.4961L51.0577 63.453L50.9204 63.4082L50.7799 63.3633L50.6427 63.3171L50.5038 63.2709L50.3649 63.2215L50.2244 63.1736L50.0825 63.1212L49.9406 63.0702L49.8141 63.0224C49.7477 62.9992 49.6783 62.9992 49.612 63.0269C49.3853 63.1258 49.3883 63.445 49.6166 63.5331L49.7493 63.5825L49.8912 63.6349L50.0363 63.6843L50.1797 63.7368L50.3216 63.7862L50.4651 63.8324L50.6056 63.8802L50.7475 63.9265L50.8864 63.9727L51.0268 64.0175L51.1674 64.0607L51.3062 64.0994L51.4451 64.141L51.584 64.1812L51.7213 64.2197L51.8586 64.2567L51.9944 64.2939L52.1331 64.3293L52.2443 64.354C52.4417 64.4034 52.6207 64.2307 52.5806 64.0316C52.5591 63.9313 52.4833 63.8557 52.3832 63.8263L52.272 63.8003ZM47.1711 61.8918L47.02 61.8192L46.8719 61.7467L46.7207 61.6725L46.5679 61.5938L46.4166 61.5197L46.2655 61.4427L46.1126 61.3623L45.9583 61.2836L45.8054 61.2033L45.6527 61.1215L45.4998 61.0383L45.347 60.958L45.1928 60.8715L45.0353 60.7851L44.932 60.7281C44.7653 60.6354 44.56 60.7358 44.5276 60.9226C44.5075 61.0383 44.5616 61.1493 44.6604 61.2033L44.7683 61.2634L44.9242 61.35L45.0801 61.4349L45.2358 61.5214L45.3933 61.6046L45.5476 61.6849L45.7018 61.7683L45.8561 61.847L46.0102 61.9272L46.1646 62.0075L46.3189 62.0846L46.473 62.1602L46.6273 62.2372L46.7785 62.3098L46.9313 62.3823L47.0918 62.4595C47.1612 62.4933 47.2385 62.495 47.3093 62.4687C47.5332 62.3822 47.547 62.0705 47.3325 61.9686L47.1711 61.8918ZM42.5192 59.2873L42.3571 59.1838L42.1968 59.0836L42.0363 58.9786L41.8759 58.8737L41.7154 58.7688L41.5549 58.6591L41.393 58.5527L41.2325 58.4446L41.069 58.3351L40.9069 58.2255L40.7466 58.1146L40.5845 58.0019L40.3578 57.8461C40.3008 57.8045 40.2282 57.7891 40.1557 57.8028C39.9182 57.8445 39.844 58.1531 40.0415 58.2919L40.2682 58.4508L40.4319 58.5635L40.5969 58.6777L40.7589 58.7872L40.9239 58.8969L41.0876 59.0079L41.2479 59.1158L41.4116 59.2239L41.5751 59.3289L41.7356 59.4338L41.8975 59.5403L42.0612 59.6437L42.2215 59.7456L42.3157 59.8073C42.3928 59.8567 42.4884 59.8629 42.5749 59.8243C42.7724 59.7332 42.794 59.4601 42.6103 59.346L42.5192 59.2873ZM37.9614 56.0825L37.7947 55.956L37.6312 55.8265L37.4645 55.6999L37.2996 55.5688L37.1345 55.4377L36.9695 55.3065L36.8027 55.1722L36.6376 55.0395L36.471 54.9038L36.3028 54.7695L36.0559 54.5674C35.9046 54.4424 35.6811 54.5118 35.6209 54.6985C35.5884 54.8049 35.6192 54.9162 35.7073 54.987L35.9557 55.1922L36.124 55.3296L36.2905 55.4653L36.4588 55.5996L36.6253 55.7323L36.7919 55.865L36.9602 55.9993L37.1253 56.1289L37.2918 56.2584L37.4599 56.3896L37.625 56.5161L37.8427 56.6828C37.8981 56.7275 37.9644 56.7429 38.0355 56.7367C38.2808 56.709 38.3718 56.4003 38.1759 56.2491L37.9614 56.0825ZM33.8046 52.6386L33.6349 52.489L33.4729 52.3393L33.3032 52.1896L33.1365 52.0385L32.9698 51.8872L32.8017 51.7343L32.635 51.5786L32.4684 51.4257L32.3002 51.2715L32.1336 51.1141L31.9963 50.986C31.8883 50.884 31.7201 50.8871 31.6153 50.9968C31.5073 51.1031 31.5088 51.282 31.6215 51.384L31.7588 51.5151L31.9255 51.6708L32.0936 51.8267L32.2633 51.9826L32.4299 52.1384L32.5965 52.2912L32.7662 52.4424L32.9344 52.5952L33.1025 52.7481L33.2706 52.8977L33.4373 53.0474L33.6332 53.2186C33.7813 53.3496 34.0158 53.2834 34.076 53.0921C34.1069 52.9886 34.076 52.8823 33.9972 52.8097L33.8046 52.6386ZM29.8023 48.8509L29.6372 48.681L29.4691 48.5129L29.3054 48.3446L29.1389 48.1735L28.9722 48.0038L28.8057 47.8309L28.6436 47.6597L28.4786 47.4886L28.3119 47.3141L28.167 47.16C28.1083 47.0968 28.0251 47.0688 27.9386 47.0766C27.7165 47.1043 27.6145 47.3713 27.7674 47.5349L27.9155 47.6907L28.0806 47.8651L28.2457 48.0379L28.4124 48.2106L28.5805 48.3835L28.7456 48.5546L28.9122 48.7275L29.0805 48.8972L29.2454 49.0669L29.4121 49.2352L29.6667 49.4882C29.7161 49.5376 29.7855 49.5668 29.8565 49.5668C30.0987 49.5686 30.2252 49.2753 30.0539 49.101L29.8023 48.8509Z" fill="#EFDFA5"/>
<path d="M44.1518 46.6322C44.2104 46.5935 44.2489 46.5381 44.2675 46.4779C44.3277 46.4903 44.3956 46.4795 44.4542 46.4408L44.5745 46.3652L44.786 46.2325L44.9958 46.0983L45.2041 45.964L45.4139 45.8297L45.6237 45.6954L45.832 45.5597L46.0373 45.4254L46.2456 45.2927L46.4507 45.1538L46.7393 44.9625C46.8688 44.876 46.8982 44.6986 46.8056 44.5737C46.7178 44.4565 46.5558 44.4256 46.4369 44.5058L46.1498 44.6971L45.9431 44.8328L45.7393 44.9685L45.5326 45.1012L45.3243 45.234L45.1175 45.3683L44.9092 45.501L44.7024 45.6367L44.4941 45.7694L44.2828 45.9006L44.1624 45.976C44.1069 46.0115 44.0651 46.0655 44.0481 46.1257C43.9835 46.1166 43.9171 46.1287 43.8614 46.1644L43.65 46.2971L43.4357 46.4267L43.2274 46.5562L43.0145 46.6873L42.8016 46.8155L42.5901 46.942L42.3787 47.0669L42.1672 47.195L41.9575 47.32L41.7446 47.4449L41.5425 47.5637C41.4468 47.6178 41.3958 47.7273 41.4114 47.8337C41.4376 48.0282 41.6521 48.1345 41.8202 48.0374L42.0223 47.917L42.2352 47.7905L42.4481 47.6656L42.6595 47.5391L42.874 47.4108L43.0869 47.2828L43.2983 47.1533L43.5128 47.025L43.7257 46.8941L43.9386 46.7628L44.1518 46.6322ZM61.0608 34.9396C60.6874 35.1711 60.2539 35.2298 59.8542 35.1355C59.6551 35.0877 59.4654 35.0028 59.2941 34.8825L59.1506 35.0214L59.0009 35.1681L58.8497 35.3147L58.6984 35.4613L58.5456 35.6064L58.3914 35.753L58.2355 35.8997L58.0798 36.0448L57.9239 36.1913L57.768 36.3395L57.6107 36.4846L57.4764 36.6049C57.3189 36.7484 57.069 36.6635 57.0243 36.4522C57.0073 36.3611 57.0366 36.2638 57.106 36.2006L57.2387 36.0786L57.3945 35.9335L57.5534 35.7869L57.7063 35.6451L57.8621 35.5L58.0149 35.3549L58.1677 35.2082L58.319 35.0617L58.4719 34.9182L58.6214 34.7731L58.7696 34.628L58.9069 34.4924C58.8883 34.4676 58.8731 34.4414 58.8575 34.4168C58.6213 34.0387 58.5597 33.6005 58.6507 33.2009C58.7416 32.8014 58.9855 32.4372 59.3589 32.2057C59.7322 31.9727 60.1658 31.9141 60.5654 32.0098C60.7521 32.0546 60.9311 32.1332 61.0931 32.2413L61.1656 32.1657L61.2983 32.0206L61.4295 31.8771L61.559 31.7322L61.6886 31.5886L61.8167 31.4451L61.9448 31.3016L62.0715 31.1567L62.198 31.0132L62.3228 30.8697L62.4463 30.7246L62.5682 30.5826L62.6901 30.4407L62.7471 30.3728C62.8027 30.308 62.8798 30.274 62.9632 30.2756C63.1945 30.2896 63.3118 30.5534 63.1653 30.7277L63.1065 30.7957L62.9832 30.9423L62.8598 31.0843L62.7349 31.2308L62.6084 31.3743L62.4818 31.521L62.3537 31.6661L62.2242 31.811L62.0946 31.9576L61.9651 32.1027L61.8324 32.2478L61.6996 32.3943L61.5654 32.5392L61.4898 32.6226C61.5161 32.6566 61.5407 32.6935 61.5639 32.7321C61.7984 33.1071 61.8603 33.5438 61.7692 33.9434C61.6779 34.3443 61.4341 34.7083 61.0608 34.9396ZM59.9745 34.605C60.2368 34.6651 60.5238 34.628 60.7706 34.4738C61.0175 34.321 61.1764 34.0804 61.2382 33.8196C61.2968 33.5542 61.2583 33.2672 61.1024 33.0173C60.9481 32.7688 60.7075 32.6067 60.4436 32.5436C60.1813 32.4804 59.8945 32.5174 59.6476 32.6717C59.4022 32.826 59.2418 33.0651 59.1817 33.3289C59.1214 33.5928 59.1631 33.8782 59.3173 34.1297C59.473 34.3765 59.7108 34.5418 59.9745 34.605ZM48.668 42.9738C48.5876 43.0309 48.5429 43.1312 48.5568 43.2316C48.5846 43.4351 48.8177 43.5402 48.9858 43.4229L49.2589 43.227L49.4533 43.0865L49.6492 42.9476L49.8437 42.8071L50.0382 42.6682L50.2295 42.5263L50.4208 42.3858L50.6105 42.2454L50.8018 42.1035L50.9915 41.9616L51.186 41.8165C51.2693 41.7533 51.3093 41.6468 51.2861 41.5404C51.243 41.3475 51.0132 41.2596 50.8542 41.3783L50.6629 41.5218L50.4746 41.6638L50.2863 41.8041L50.0966 41.943L49.9053 42.0835L49.7154 42.224L49.5226 42.3629L49.3297 42.5018L49.1368 42.6421L48.9409 42.7796L48.668 42.9738ZM52.9944 39.7182C52.9171 39.7831 52.8817 39.8803 52.8987 39.9805C52.9373 40.1842 53.1764 40.2769 53.3369 40.1472L53.5637 39.9667L53.7411 39.8216L53.9184 39.6781L54.0945 39.533L54.2703 39.3895L54.4447 39.2461L54.6191 39.101L54.7934 38.9543L54.9662 38.8108L55.1375 38.6657L55.3072 38.5208L55.4367 38.4112C55.608 38.2646 55.5324 37.9791 55.3102 37.9329C55.2268 37.9175 55.1436 37.9407 55.0803 37.9931L54.9508 38.1026L54.7825 38.2445L54.6114 38.3896L54.4415 38.533L54.2688 38.6765L54.0959 38.8216L53.9216 38.9635L53.7473 39.1086L53.5729 39.2504L53.3969 39.3939L53.2196 39.5374L52.9944 39.7182ZM64.4351 28.262C64.284 28.4657 64.4691 28.751 64.7175 28.694C64.7807 28.6801 64.8317 28.6446 64.8733 28.5938L64.9427 28.4981L65.0492 28.3561L65.1541 28.2156L65.2576 28.0737L65.361 27.9318L65.4629 27.7899L65.5631 27.6479L65.6632 27.5076L65.7636 27.3657L65.8592 27.2253L65.9565 27.0848L66.0538 26.9443L66.1478 26.8024L66.2405 26.6651L66.333 26.5263L66.4457 26.3535C66.5767 26.1482 66.3916 25.8828 66.1541 25.9369C66.0862 25.9523 66.0276 25.9939 65.9875 26.0556L65.8779 26.2192L65.7868 26.3581L65.6942 26.4954L65.6031 26.6343L65.5075 26.773L65.4102 26.912L65.3162 27.0493L65.2189 27.1896L65.1202 27.3285L65.0182 27.4674L64.9195 27.6079L64.8176 27.7468L64.7158 27.8856L64.6125 28.0261L64.506 28.168L64.4351 28.262ZM67.3622 23.7334C67.2525 23.9417 67.4392 24.1824 67.6692 24.13C67.7448 24.1116 67.8081 24.062 67.8451 23.9927L67.8851 23.9201L67.9545 23.7844L68.0255 23.6517L68.0919 23.5159L68.1582 23.3848L68.223 23.2491L68.2909 23.1195L68.3541 22.9853L68.4173 22.8557L68.4775 22.7199L68.5376 22.5918L68.598 22.4591L68.6564 22.328L68.7105 22.1984L68.7675 22.0689L68.8199 21.9377L68.8755 21.8082L68.9264 21.6786L68.9774 21.5521L68.9988 21.4935C69.0899 21.2575 68.8385 21.0338 68.6162 21.1511C68.5576 21.1819 68.516 21.2313 68.4897 21.293L68.4696 21.347L68.4202 21.4704L68.3708 21.5985L68.3168 21.725L68.2643 21.8499L68.2103 21.978L68.1547 22.1046L68.0992 22.2327L68.0422 22.3608L67.982 22.4873L67.9234 22.6169L67.8617 22.7464L67.7985 22.8775L67.7353 23.0071L67.6734 23.1366L67.6056 23.2662L67.5377 23.3989L67.4697 23.5284L67.4018 23.6596L67.3622 23.7334ZM69.2523 18.7267C69.209 18.9519 69.4435 19.1294 69.6456 19.0229C69.7197 18.9843 69.7689 18.918 69.7845 18.8362L69.8108 18.6989L69.834 18.5801L69.8554 18.463L69.8724 18.3426L69.8894 18.2253L69.9047 18.108L69.9201 17.9908L69.9324 17.8767L69.9464 17.761L69.9572 17.6452L69.9678 17.5311L69.9756 17.4153L69.9818 17.3012L69.9896 17.1885L69.9926 17.0758L69.9972 16.9648V16.8507L69.9988 16.7411V16.6301L69.9958 16.5192L69.9912 16.4095L69.9866 16.2999L69.9804 16.192L69.9727 16.0855L69.968 16.0407C69.945 15.7923 69.6332 15.6981 69.482 15.894C69.4389 15.9496 69.4203 16.0159 69.4265 16.0869L69.4311 16.1225L69.4371 16.2226L69.4419 16.3246L69.4481 16.4263L69.4511 16.5282L69.4525 16.6332V16.7365V16.843V16.9464L69.4495 17.0529L69.445 17.1594L69.4389 17.2658L69.4327 17.3753L69.4249 17.4833L69.4157 17.5897L69.4033 17.7008L69.3941 17.8087L69.3801 17.9197L69.3663 18.0308L69.3524 18.1436L69.3322 18.2531L69.3154 18.3672L69.2984 18.4814L69.2768 18.5941L69.2523 18.7267ZM68.7153 13.5732C68.8418 13.8031 69.1828 13.7476 69.2228 13.4899C69.2336 13.4313 69.2228 13.3711 69.195 13.3156L69.1828 13.297L69.1333 13.2075L69.0839 13.1181L69.0315 13.0301L68.979 12.9406L68.922 12.8542L68.8664 12.7709L68.8094 12.6845L68.7492 12.6012L68.6906 12.5163L68.6289 12.4359L68.5657 12.3558L68.5009 12.274L68.4377 12.1953L68.3684 12.1181L68.302 12.041L68.2326 11.9654L68.1617 11.8898L68.0907 11.8174L68.0182 11.7433L67.9442 11.6739L67.8699 11.603L67.7913 11.532L67.7141 11.464L67.6338 11.3961L67.5552 11.3267L67.4735 11.2635L67.3917 11.1988L67.3455 11.1634C67.1449 11.0137 66.8702 11.188 66.9166 11.4318C66.9289 11.5012 66.9659 11.5583 67.0215 11.5999L67.0631 11.6293L67.1372 11.6895L67.2128 11.7512L67.2869 11.813L67.3595 11.8747L67.4319 11.9395L67.5013 12.0027L67.5706 12.0675L67.64 12.1354L67.7048 12.2002L67.7696 12.2681L67.8343 12.3361L67.8991 12.407L67.9609 12.4748L68.0226 12.5474L68.0812 12.6199L68.1414 12.6923L68.1971 12.7664L68.2541 12.8406L68.3081 12.9161L68.3636 12.9917L68.416 13.0719L68.4685 13.149L68.5179 13.2278L68.5673 13.3095L68.6135 13.3897L68.6597 13.4699L68.7046 13.5532L68.7153 13.5732ZM64.6836 10.3793C64.7885 10.4147 64.8965 10.3853 64.9706 10.3068C65.1033 10.1586 65.0416 9.92718 64.8518 9.8624L64.753 9.82541L64.6388 9.79L64.5262 9.75286L64.4137 9.71745L64.2978 9.68348L64.1806 9.65109L64.0635 9.61856L63.9463 9.58618L63.8274 9.55681L63.7056 9.52601L63.5883 9.49823L63.4634 9.46901L63.3415 9.44425L63.2181 9.41805L63.0947 9.39344L62.9682 9.36868L62.8415 9.3455L62.7136 9.32391L62.5853 9.30232L62.4574 9.28231L62.3261 9.26231L62.1934 9.24374L62.1472 9.23596C61.9159 9.20818 61.76 9.46598 61.8895 9.66031C61.9359 9.72825 62.0022 9.76826 62.0824 9.77906L62.1257 9.78525L62.2522 9.80367L62.3804 9.82368L62.5023 9.84067L62.6256 9.86067L62.7506 9.88227L62.8739 9.90544L62.9943 9.92861L63.113 9.95179L63.2319 9.97813L63.3523 10.0043L63.468 10.0305L63.5837 10.0567L63.6996 10.0875L63.8137 10.1153L63.9263 10.1461L64.0389 10.1771L64.1498 10.2079L64.2595 10.2404L64.3691 10.2758L64.4786 10.3098L64.5835 10.3452L64.6836 10.3793ZM59.402 9.61093C59.5409 9.60935 59.6551 9.50298 59.6689 9.36249C59.6829 9.20214 59.5548 9.06323 59.3927 9.06323H59.2462L59.0995 9.06482L58.9498 9.0664L58.7985 9.07101L58.6458 9.07403L58.4945 9.07863L58.3387 9.08482L58.1844 9.0926L58.0316 9.09864L57.8774 9.10786L57.7199 9.11707L57.5625 9.12628L57.4035 9.13707L57.2461 9.14931L57.0887 9.16154L56.9267 9.17551L56.7677 9.18947L56.6519 9.20027C56.405 9.22488 56.3201 9.53508 56.5161 9.68924C56.5718 9.73098 56.6382 9.75099 56.7076 9.74322L56.8201 9.73242L56.9805 9.72019L57.138 9.70622L57.2937 9.69384L57.448 9.68305L57.6039 9.67081L57.7581 9.66318L57.9109 9.65239L58.0638 9.64318L58.2165 9.63699L58.3646 9.6308L58.5175 9.62461L58.6655 9.62L58.8136 9.61698L58.9617 9.61554L59.1084 9.61252L59.2564 9.61093H59.402ZM54.0326 10.1047C54.1329 10.0877 54.2148 10.0167 54.2454 9.91796C54.3056 9.72206 54.1391 9.53076 53.9384 9.56458L53.7595 9.59395L53.5866 9.62634L53.4123 9.65887L53.2396 9.68967L53.0651 9.7222L52.8862 9.75603L52.7103 9.79158L52.5343 9.82857L52.3569 9.86557L52.1796 9.90256L51.9991 9.93955L51.82 9.97813L51.6411 10.0197L51.4606 10.0599L51.2553 10.1062C51.1474 10.134 51.0702 10.2204 51.0501 10.3315C51.0255 10.5244 51.1998 10.6833 51.3865 10.6385L51.584 10.5938L51.7645 10.5536L51.9419 10.515L52.1209 10.4733L52.2952 10.4379L52.4711 10.3993L52.6485 10.3638L52.8229 10.3282L52.9972 10.2942L53.1701 10.2603L53.3428 10.2279L53.5157 10.1939L53.6884 10.1631L53.8581 10.1353L54.0326 10.1047ZM48.7682 11.3174C48.9872 11.2526 49.0336 10.9641 48.8453 10.8314C48.7759 10.7835 48.694 10.7697 48.614 10.7927L48.5013 10.8236L48.3116 10.8806L48.1218 10.9346L47.9321 10.9916L47.7424 11.0488L47.5511 11.1058L47.3582 11.1645L47.1669 11.2247L46.9725 11.2864L46.7794 11.3466L46.5883 11.4083L46.3937 11.4731L46.1994 11.5363L46.0096 11.5995C45.7766 11.6767 45.761 11.9991 45.9819 12.1056C46.0466 12.1365 46.1176 12.1412 46.184 12.118L46.3722 12.0548L46.5651 11.993L46.758 11.9298L46.9509 11.8681L47.1422 11.8079L47.3305 11.7478L47.5233 11.6876L47.7131 11.6274L47.9029 11.5719L48.091 11.5147L48.2808 11.4592L48.4692 11.4052L48.6559 11.3496L48.7682 11.3174ZM43.6349 13.0254C43.8509 12.9436 43.8694 12.6428 43.6673 12.5286C43.5963 12.4915 43.5131 12.4823 43.439 12.5117L43.2369 12.5872L43.0378 12.666L42.8371 12.7415L42.635 12.8201L42.4344 12.8989L42.2307 12.9776L42.0286 13.0594L41.8265 13.1411L41.623 13.2229L41.4209 13.3046L41.2172 13.3894L40.9056 13.5206C40.8099 13.5591 40.7451 13.6517 40.7405 13.7536C40.7327 13.9589 40.9334 14.0992 41.1201 14.022L41.4272 13.8939L41.6308 13.8122L41.8314 13.7288L42.0335 13.6485L42.2342 13.5668L42.4348 13.4864L42.6369 13.4077L42.836 13.3321L43.0351 13.2535L43.2357 13.1764L43.4348 13.0977L43.6349 13.0254ZM38.6388 15.1084C38.7299 15.0668 38.7916 14.9757 38.7977 14.8739C38.8039 14.6686 38.5956 14.5267 38.4089 14.6101L38.1327 14.7366L37.9244 14.8337L37.7162 14.9309L37.508 15.0281L37.2997 15.1268L37.0914 15.224L36.8831 15.3259L36.6748 15.4262L36.4665 15.5281L36.2568 15.6299L35.9512 15.7796C35.7323 15.8906 35.7599 16.2085 35.9914 16.2857C36.0593 16.3073 36.1303 16.3027 36.1951 16.2719L36.4989 16.1222L36.7058 16.0203L36.9156 15.9185L37.1225 15.8182L37.3306 15.7194L37.5375 15.6223L37.7443 15.5251L37.9496 15.4278L38.1564 15.3306L38.3647 15.2333L38.6388 15.1084ZM33.7863 17.5076C33.8773 17.4582 33.9313 17.3627 33.9298 17.2592C33.9206 17.0571 33.7046 16.9306 33.5271 17.0231L33.308 17.1388L33.0966 17.253L32.8851 17.3687L32.6738 17.4829L32.4625 17.6L32.2496 17.7158L32.0381 17.8315L31.8268 17.9504L31.6155 18.0707L31.4011 18.1895L31.1418 18.3362C31.0461 18.3917 30.9937 18.5011 31.0075 18.6122C31.0385 18.8021 31.2452 18.9069 31.4133 18.8129L31.6725 18.6664L31.8808 18.5475L32.0937 18.4303L32.3036 18.313L32.515 18.1958L32.7265 18.0801L32.9378 17.9643L33.1477 17.8502L33.3575 17.7376L33.569 17.6235L33.7863 17.5076ZM29.0804 20.1847C29.2779 20.0627 29.2408 19.7635 29.0217 19.6909C28.9445 19.6663 28.8644 19.674 28.7934 19.7157L28.6375 19.8097L28.4262 19.9408L28.2117 20.0704L28.0019 20.2015L27.7874 20.3342L27.5745 20.4653L27.363 20.5996L27.1532 20.7324L26.9403 20.8667L26.732 20.9994L26.4866 21.1583C26.2753 21.2956 26.3493 21.6212 26.5993 21.6582C26.6655 21.6674 26.7274 21.6552 26.7828 21.618L27.0265 21.4621L27.2364 21.3294L27.4462 21.1951L27.6545 21.064L27.8674 20.9313L28.0773 20.8002L28.2887 20.669L28.5 20.5379L28.7113 20.4068L28.9242 20.2787L29.0804 20.1847ZM24.5256 23.1148C24.7262 22.979 24.6598 22.6672 24.4207 22.6209C24.3482 22.6087 24.2756 22.6225 24.217 22.6641L24.0659 22.7674L23.8668 22.9032L23.6662 23.0421L23.4671 23.181L23.2696 23.3197L23.0689 23.457L22.873 23.5974L22.6802 23.7379L22.4827 23.8752L22.2882 24.0157L22.0953 24.1562L21.992 24.2317C21.898 24.2997 21.8608 24.4138 21.8902 24.5264C21.9442 24.7099 22.1601 24.7872 22.3144 24.6745L22.4163 24.6004L22.6076 24.4615L22.8035 24.3242L22.9948 24.1853L23.1907 24.0465L23.3866 23.9076L23.5825 23.7688L23.78 23.6315L23.9775 23.4942L24.1782 23.3553L24.3741 23.218L24.5256 23.1148ZM20.1468 26.2978C20.2625 26.2098 20.2855 26.0463 20.2038 25.9274C20.1142 25.7993 19.9353 25.7685 19.8118 25.8656L19.6437 25.9984L19.4586 26.1387L19.2751 26.2822L19.0946 26.4241L18.9125 26.5676L18.732 26.7112L18.553 26.8547L18.374 26.9982L18.1949 27.1433L18.0176 27.2868L17.8433 27.4303L17.6828 27.5614C17.5994 27.634 17.5656 27.7405 17.5948 27.8469C17.6488 28.0382 17.8771 28.1107 18.0315 27.9858L18.1905 27.8577L18.3648 27.7126L18.5407 27.569L18.7166 27.4271L18.8956 27.2836L19.0731 27.1431L19.2536 26.9996L19.4341 26.8545L19.6146 26.7142L19.7951 26.5723L19.9786 26.4303L20.1468 26.2978ZM15.97 29.7416C16.1149 29.6104 16.0827 29.3775 15.9068 29.2895C15.8081 29.2417 15.6909 29.2571 15.6074 29.3296L15.4593 29.4592L15.2943 29.6057L15.1322 29.7524L14.9687 29.8975L14.8067 30.0424L14.6477 30.1905L14.4888 30.334L14.3299 30.4807L14.171 30.6273L14.0121 30.7738L13.8578 30.9205L13.7003 31.0656L13.5954 31.1657C13.4565 31.3015 13.4935 31.5331 13.6709 31.6133C13.7759 31.6596 13.8899 31.641 13.9702 31.5653L14.0751 31.4651L14.2294 31.32L14.3853 31.175L14.5411 31.0314L14.6986 30.8865L14.8575 30.7414L15.0164 30.5963L15.1737 30.4512L15.3342 30.3063L15.4963 30.1628L15.6582 30.0161L15.8219 29.871L15.97 29.7416ZM12.0417 33.4632C12.2068 33.2921 12.088 33.0049 11.8504 32.9973C11.7732 32.9973 11.7054 33.0236 11.6497 33.079L11.4754 33.2579L11.3335 33.4046L11.193 33.5497L11.0542 33.6964L10.9169 33.8415L10.778 33.988L10.6437 34.1331L10.508 34.2812L10.3722 34.4263L10.2379 34.5713L10.1068 34.7164L9.97249 34.863L9.84438 35.0096L9.78738 35.0715C9.71325 35.1578 9.69641 35.275 9.74736 35.3753C9.83517 35.5497 10.0652 35.5806 10.1947 35.4385L10.3798 35.2317L10.5094 35.0882L10.6405 34.9431L10.7732 34.7997L10.906 34.6546L11.0403 34.5111L11.176 34.3644L11.3133 34.2211L11.449 34.0744L11.5894 33.9325L11.7267 33.7858L11.8671 33.6424L12.0417 33.4632ZM8.44209 37.4963C8.5856 37.319 8.45591 37.0504 8.22762 37.052C8.14586 37.0504 8.06712 37.0891 8.01617 37.1509L7.88187 37.3206L7.7647 37.4657L7.65372 37.6092L7.54101 37.7525L7.42989 37.8961L7.32035 38.0365L7.20922 38.1801L7.10271 38.3236L6.99633 38.4655L6.88838 38.6089L6.78344 38.7508L6.68009 38.8913L6.5766 39.0332L6.47641 39.1751L6.36371 39.3309C6.30195 39.4188 6.29893 39.533 6.35291 39.6273C6.45309 39.797 6.69535 39.8124 6.80806 39.6504L6.9176 39.4961L7.01951 39.3572L7.12142 39.2167L7.22319 39.0762L7.32668 38.9373L7.43162 38.7984L7.53655 38.6567L7.64451 38.5147L7.75246 38.3728L7.86042 38.2339L7.96996 38.0904L8.08094 37.95L8.19509 37.8081L8.30779 37.6676L8.44209 37.4963ZM5.32847 41.9046C5.43643 41.7195 5.29911 41.4832 5.08305 41.4894C4.98891 41.494 4.91032 41.5404 4.86095 41.6206L4.82237 41.6869L4.73903 41.8227L4.65885 41.9584L4.57853 42.0973L4.4998 42.233L4.42423 42.3688L4.34866 42.5045L4.27309 42.6403L4.19752 42.7744L4.12655 42.9102L4.05401 43.0446L3.98463 43.1787L3.91525 43.313L3.84586 43.4473L3.77792 43.5801L3.71315 43.7128L3.64996 43.8455L3.58519 43.9782L3.5574 44.0384C3.50645 44.1419 3.5266 44.2606 3.60678 44.3454C3.73949 44.4829 3.96778 44.4489 4.04954 44.276L4.07732 44.219L4.13908 44.0911L4.20241 43.9598L4.2656 43.8288L4.33196 43.6975L4.39976 43.5696L4.46453 43.4351L4.53391 43.3056L4.60646 43.1714L4.67742 43.0387L4.74997 42.9091L4.8241 42.7734L4.89823 42.6421L4.9738 42.508L5.05095 42.3737L5.1281 42.2425L5.20828 42.1068L5.2886 41.9711L5.32847 41.9046ZM3.06181 46.7726C3.13277 46.5412 2.88908 46.336 2.67604 46.4455C2.60969 46.4795 2.56348 46.5335 2.54031 46.6076L2.51713 46.6786L2.48014 46.8051L2.44315 46.9284L2.40918 47.0518L2.3752 47.1752L2.34282 47.2971L2.31043 47.4204L2.27963 47.5425L2.25185 47.6644L2.22248 47.7848L2.19772 47.9067L2.17311 48.027L2.14835 48.1458L2.12518 48.2662L2.10517 48.3834L2.08358 48.5038L2.06501 48.6195L2.04802 48.7382L2.03262 48.8554L2.01722 48.9713L2.00326 49.0885L1.99102 49.2056L1.9772 49.3337C1.9618 49.5666 2.22709 49.7163 2.41378 49.576C2.47697 49.5298 2.51411 49.4603 2.52174 49.3801L2.53253 49.2643L2.54491 49.1534L2.55729 49.0438L2.57111 48.9327L2.58651 48.8217L2.60191 48.7107L2.62048 48.5965L2.64049 48.4839L2.6605 48.3713L2.68367 48.2556L2.70685 48.1399L2.73002 48.0256L2.7532 47.9098L2.78098 47.7927L2.81034 47.6768L2.83812 47.5596L2.86893 47.4409L2.90131 47.3237L2.9337 47.205L2.96767 47.0829L3.00164 46.9643L3.0372 46.8438L3.06181 46.7726ZM2.69461 52.0046C2.63142 51.7717 2.31504 51.7269 2.1947 51.9352C2.15915 51.9984 2.14835 52.0741 2.1685 52.1435L2.19168 52.2362L2.21946 52.3349L2.24882 52.4353L2.27819 52.5354L2.30914 52.6312L2.34296 52.7299L2.37693 52.8256L2.41249 52.9228L2.45106 53.0185L2.48964 53.1141L2.53124 53.2068L2.5714 53.3008L2.61616 53.3919L2.65935 53.4859L2.70728 53.577L2.75363 53.6681L2.803 53.7575L2.85396 53.847L2.90491 53.9336L2.96048 54.0214L3.01445 54.1093L3.07145 54.1973L3.12846 54.2804L3.18704 54.3638L3.24721 54.4471L3.30896 54.5305L3.37373 54.6091L3.43088 54.6832C3.59598 54.8807 3.91381 54.7681 3.91222 54.5105C3.91064 54.4457 3.89063 54.3855 3.85205 54.3377L3.79808 54.2728L3.74108 54.1988L3.68393 54.1247L3.62995 54.0476L3.57439 53.9704L3.52199 53.8933L3.47104 53.8162L3.42167 53.7359L3.37229 53.6572L3.32609 53.5754L3.2783 53.4938L3.23353 53.4121L3.19035 53.3287L3.14717 53.2454L3.10701 53.1604L3.06685 53.0772L3.02827 52.9907L2.99128 52.9042L2.95745 52.8179L2.9219 52.7299L2.88807 52.6405L2.85712 52.554L2.8279 52.4645L2.79854 52.3734L2.77076 52.2824L2.74456 52.1913L2.71678 52.0987L2.69461 52.0046ZM5.87776 55.9823C5.80838 55.9453 5.72647 55.9407 5.65249 55.9699C5.43499 56.0578 5.42261 56.3557 5.62931 56.4668L5.72028 56.5146L5.81744 56.567L5.91763 56.6165L6.01652 56.6643L6.1167 56.7137L6.2202 56.7599L6.32355 56.8062L6.4269 56.8494L6.53183 56.8942L6.63979 56.9375L6.74472 56.9791L6.85426 57.0208L6.9638 57.0594L7.07493 57.0994L7.18447 57.1366L7.29703 57.1736L7.41118 57.2107L7.52532 57.2477L7.64105 57.2802L7.7552 57.314L7.87409 57.3479L7.99285 57.3772L8.10858 57.408L8.24748 57.442C8.49276 57.499 8.67485 57.2229 8.52673 57.0161C8.48815 56.9605 8.42957 56.9251 8.36623 56.9097L8.23812 56.8772L8.12542 56.8464L8.01127 56.8187L7.89871 56.7878L7.78917 56.7554L7.67804 56.7229L7.56692 56.689L7.46055 56.6551L7.35403 56.6179L7.24766 56.5825L7.14431 56.5439L7.03937 56.5068L6.9376 56.4682L6.83569 56.4297L6.73393 56.3895L6.63518 56.3463L6.53802 56.3031L6.43928 56.2598L6.34355 56.2166L6.24783 56.1717L6.15226 56.1269L6.06114 56.0792L5.96858 56.0314L5.87776 55.9823ZM11.0156 57.3015C10.9123 57.2969 10.8166 57.3464 10.7642 57.4358C10.6654 57.6132 10.7827 57.834 10.9848 57.8478L11.099 57.8568L11.2409 57.8648L11.3828 57.8724L11.5232 57.8802L11.6667 57.8848L11.8118 57.8894L11.9553 57.8924L12.1004 57.8986L12.2469 57.9002H12.395H12.5401H12.6898L12.8394 57.8972H12.9891L13.1404 57.8941L13.2931 57.8895L13.4458 57.8865L13.5971 57.8803L13.7374 57.8725C13.9829 57.8619 14.0846 57.5577 13.8994 57.3944C13.8438 57.348 13.779 57.3264 13.7065 57.328L13.5722 57.3342L13.4211 57.3387L13.2699 57.3434L13.1218 57.3479L12.9751 57.3525L12.827 57.3541H12.6835H12.5354H12.3919L12.2484 57.3525L12.1049 57.3509L11.9645 57.3447L11.8226 57.3417L11.6821 57.3372L11.5416 57.3325L11.4027 57.3264L11.267 57.3186L11.1296 57.3094L11.0156 57.3015ZM16.3928 57.0872C16.1583 57.1196 16.0749 57.4203 16.2616 57.5716C16.3186 57.6193 16.3943 57.6425 16.4685 57.6301L16.6458 57.607L16.8155 57.5839L16.9806 57.5608L17.1503 57.5361L17.3216 57.5098L17.4913 57.4835L17.6626 57.4558L17.8339 57.428L18.0051 57.3987L18.1779 57.3695L18.3508 57.3402L18.5235 57.3077L18.701 57.2739L18.8753 57.2413L19.0496 57.2075L19.17 57.1828C19.2811 57.1612 19.3659 57.0731 19.3829 56.9575C19.4092 56.7692 19.2455 56.612 19.0573 56.6474L18.9415 56.6722L18.7656 56.7046L18.5944 56.7386L18.4216 56.7678L18.2503 56.8003L18.0806 56.8311L17.9109 56.8605L17.738 56.8883L17.5699 56.9159L17.4032 56.9435L17.2351 56.9683L17.067 56.9946L16.9003 57.0178L16.7353 57.0424L16.5702 57.064L16.3928 57.0872ZM21.6943 56.0471C21.4828 56.0995 21.4197 56.3666 21.5802 56.5116C21.6495 56.5763 21.7421 56.5995 21.8332 56.5779L21.9396 56.5471L22.1247 56.4993L22.3114 56.4514L22.4966 56.4004L22.6833 56.3495L22.8716 56.3001L23.0599 56.246L23.2466 56.195L23.4363 56.1395L23.626 56.0855L23.8157 56.0298L24.007 55.9728L24.1969 55.9158L24.4607 55.8356C24.6922 55.7646 24.7168 55.4468 24.5039 55.3325C24.4391 55.2987 24.365 55.2925 24.2971 55.3124L24.0348 55.3927L23.8451 55.4483L23.6584 55.5053L23.4701 55.5594L23.2818 55.6134L23.0951 55.6658L22.9085 55.7197L22.7218 55.7723L22.5382 55.8232L22.3515 55.8742L22.1679 55.9236L21.9842 55.9698L21.7991 56.0193L21.6943 56.0471ZM26.8663 54.4656C26.6333 54.5489 26.624 54.8713 26.8493 54.9733C26.9141 55.0009 26.982 55.0056 27.05 54.981L27.3076 54.8899L27.5051 54.8189L27.7042 54.748L27.9033 54.6738L28.1007 54.6013L28.2997 54.5257L28.5003 54.4517L28.6994 54.3762L28.9015 54.3006L29.102 54.2219L29.3027 54.1431L29.6036 54.026C29.707 53.986 29.7718 53.8871 29.7734 53.7761C29.7749 53.5802 29.5821 53.4459 29.4 53.5184L29.1022 53.6341L28.9031 53.7113L28.7026 53.7885L28.5035 53.864L28.3044 53.9396L28.1069 54.0152L27.9094 54.0876L27.712 54.1617L27.5145 54.2311L27.3186 54.3036L27.1211 54.373L26.8663 54.4656ZM31.9008 52.4799C31.8037 52.5246 31.7403 52.6172 31.7373 52.7236C31.7373 52.9242 31.9394 53.06 32.1215 52.9812L32.3591 52.8779L32.5643 52.7868L32.7711 52.6974L32.9764 52.6047L33.1832 52.5107L33.3915 52.4165L33.5983 52.3224L33.805 52.2268L34.0149 52.1311L34.2218 52.0355L34.4286 51.9366L34.5997 51.8549C34.7387 51.7917 34.7942 51.6236 34.7263 51.4877C34.6583 51.3518 34.4996 51.2964 34.3653 51.3596L34.194 51.4399L33.9873 51.5386L33.7806 51.6344L33.5753 51.7284L33.3685 51.8241L33.1616 51.9181L32.9579 52.0108L32.7512 52.1035L32.5444 52.1944L32.3423 52.2856L32.1355 52.3751L31.9008 52.4799ZM36.7936 50.1656C36.5775 50.2766 36.6069 50.5944 36.8383 50.6685C36.9063 50.69 36.9803 50.6853 37.0436 50.6531L37.363 50.4912L37.5745 50.38L37.7826 50.2721L37.9955 50.161L38.2069 50.0484L38.4168 49.9358L38.6281 49.8233L38.8426 49.7106L39.0525 49.5964L39.2623 49.4823L39.4506 49.3804C39.6465 49.2708 39.6341 48.9839 39.429 48.8898C39.3503 48.8558 39.2609 48.8574 39.1868 48.8976L39.0017 49.0009L38.7902 49.1168L38.5787 49.2278L38.3705 49.3404L38.1606 49.4529L37.9493 49.5656L37.7394 49.6766L37.5311 49.7861L37.3197 49.8942L37.1115 50.0038L36.7936 50.1656Z" fill="#FFE1DF"/>
<path fill-rule="evenodd" clip-rule="evenodd" d="M52.1377 0.00756836C52.1377 2.35585 54.0402 4.27834 56.3686 4.27834C54.0402 4.27834 52.1377 6.1994 52.1377 8.55084C52.1377 6.1994 50.2354 4.27834 47.9102 4.27834C50.2354 4.27848 52.1377 2.35599 52.1377 0.00756836Z" fill="#EFDFA5"/>
<path fill-rule="evenodd" clip-rule="evenodd" d="M4.22759 26.3547C4.22759 28.703 6.13008 30.6241 8.45835 30.6241C6.13008 30.6241 4.22759 32.5464 4.22759 34.8964C4.22759 32.5466 2.32525 30.6241 0 30.6241C2.3251 30.6241 4.22759 28.703 4.22759 26.3547Z" fill="#FFE1DF"/>
<path fill-rule="evenodd" clip-rule="evenodd" d="M64.7981 37.2047C64.7981 38.6073 65.9351 39.7536 67.3239 39.7536C65.9353 39.7536 64.7981 40.9 64.7981 42.3026C64.7981 40.9 63.664 39.7536 62.2754 39.7536C63.664 39.7536 64.7981 38.6073 64.7981 37.2047Z" fill="#EFDFA5"/>
<path d="M49.5836 56.9188C49.1469 56.9188 48.7936 56.5655 48.7936 56.1289C48.7936 35.4382 31.9849 18.6048 11.3266 18.6048C10.8899 18.6048 10.5366 18.2514 10.5366 17.8148V8.72978C10.5366 8.2932 10.8899 7.93982 11.3266 7.93982C37.8837 7.93982 59.4909 29.5564 59.4909 56.1287C59.4909 56.5653 59.1375 56.9187 58.7009 56.9187H49.5836V56.9188ZM33.4691 56.9065C33.0324 56.9065 32.6791 56.5532 32.6791 56.1165C32.6791 50.3892 30.4542 45.0105 26.4164 40.971C22.3861 36.9331 17.023 34.7098 11.311 34.7098C10.8743 34.7098 10.5211 34.3566 10.5211 33.9199V24.8349C10.5211 24.3983 10.8745 24.045 11.311 24.045C28.9931 24.045 43.3794 38.4313 43.3794 56.1164C43.3794 56.5531 43.026 56.9063 42.5894 56.9063H33.4691V56.9065ZM17.6184 56.8633C13.6993 56.8633 10.5117 53.6865 10.5117 49.7812C10.5117 45.876 13.6995 42.6992 17.6184 42.6992C21.539 42.6992 24.7283 45.876 24.7283 49.7812C24.7283 53.6865 21.5392 56.8633 17.6184 56.8633Z" fill="#FFE1DF"/>
<path d="M9.7207 49.7812C9.7207 46.3036 12.5489 43.4892 16.0375 43.4892C19.5261 43.4892 22.3573 46.3036 22.3573 49.7812C22.3573 53.256 19.5261 56.0734 16.0375 56.0734C12.5489 56.0734 9.7207 53.256 9.7207 49.7812ZM31.8881 56.1166H41.0083C41.0083 38.8666 26.977 24.8351 9.72992 24.8351V33.9199C15.6471 33.9199 21.2123 36.222 25.3937 40.4126C29.5799 44.6002 31.8881 50.1794 31.8881 56.1166ZM48.0025 56.1289H57.1197C57.1197 29.9916 35.8658 8.72998 9.74546 8.72998V17.8148C30.8373 17.8148 48.0025 35.0029 48.0025 56.1289Z" fill="#FFC8C5"/>
<path d="M11.3254 8.72981C37.4457 8.72981 58.6997 29.9914 58.6997 56.1288H49.5825C49.5825 35.0028 32.4174 17.8146 11.3254 17.8146V8.72981ZM11.31 24.835C28.5569 24.835 42.5884 38.8665 42.5884 56.1164H33.468C33.468 50.1792 31.1598 44.6 26.9738 40.4124C22.7924 36.2218 17.227 33.9197 11.31 33.9197V24.835ZM17.6174 43.4892C21.106 43.4892 23.9373 46.3035 23.9373 49.7812C23.9373 53.256 21.1061 56.0734 17.6174 56.0734C14.1289 56.0734 11.3006 53.256 11.3006 49.7812C11.3006 46.3035 14.1289 43.4892 17.6174 43.4892ZM11.3254 7.1499C10.4521 7.1499 9.74546 7.85652 9.74546 8.72996V17.8147C9.74546 18.6865 10.4521 19.3947 11.3254 19.3947C31.5487 19.3947 48.0025 35.8732 48.0025 56.1289C48.0025 57.0008 48.7091 57.709 49.5825 57.709H58.6997C59.5716 57.709 60.2798 57.0008 60.2798 56.1289C60.2796 29.1214 38.319 7.1499 11.3254 7.1499ZM11.31 23.2551C10.4367 23.2551 9.72992 23.9618 9.72992 24.835V33.9197C9.72992 34.7916 10.4365 35.4998 11.31 35.4998C16.8104 35.4998 21.9763 37.6398 25.8552 41.5281C29.745 45.4209 31.8881 50.6005 31.8881 56.1165C31.8881 56.9884 32.5947 57.6966 33.468 57.6966H42.5884C43.4602 57.6966 44.1684 56.9884 44.1684 56.1165C44.1683 37.9963 29.427 23.2551 11.31 23.2551ZM17.6174 41.9091C13.2633 41.9091 9.7207 45.4393 9.7207 49.7811C9.7207 54.1213 13.2633 57.6531 17.6174 57.6531C21.9731 57.6531 25.5172 54.1213 25.5172 49.7811C25.5172 45.4395 21.9732 41.9091 17.6174 41.9091Z" fill="#FFA29D"/>
</svg>
