<svg width="32" height="32" viewBox="0 0 32 32" fill="none" xmlns="http://www.w3.org/2000/svg">
<path d="M6.87783 15.3213C6.77985 17.1826 6.89248 19.164 5.22951 20.4112C4.45552 20.9917 4 21.9026 4 22.8702C4 24.201 5.0424 25.3333 6.4 25.3333H25.6C26.9576 25.3333 28 24.201 28 22.8702C28 21.9026 27.5445 20.9917 26.7705 20.4112C25.1075 19.164 25.2201 17.1826 25.1221 15.3213C24.8668 10.4696 20.8584 6.66663 16 6.66663C11.1416 6.66663 7.13317 10.4696 6.87783 15.3213Z" stroke="#495057" stroke-width="1.5" stroke-linecap="round" stroke-linejoin="round"/>
<path d="M14 4.16663C14 5.2712 14.8955 6.66663 16 6.66663C17.1045 6.66663 18 5.2712 18 4.16663C18 3.06205 17.1045 2.66663 16 2.66663C14.8955 2.66663 14 3.06205 14 4.16663Z" stroke="#495057" stroke-width="1.5"/>
<path d="M20 25.3334C20 27.5426 18.2092 29.3334 16 29.3334C13.7908 29.3334 12 27.5426 12 25.3334" stroke="#495057" stroke-width="1.5" stroke-linecap="round" stroke-linejoin="round"/>
</svg>
