<svg width="30" height="31" viewBox="0 0 30 31" fill="none" xmlns="http://www.w3.org/2000/svg">
<path d="M1.125 6.25C1.125 4.06976 1.125 2.97963 1.80232 2.30232C2.47963 1.625 3.56976 1.625 5.75 1.625C7.93024 1.625 9.02037 1.625 9.69768 2.30232C10.375 2.97963 10.375 4.06976 10.375 6.25C10.375 8.43024 10.375 9.52037 9.69768 10.1977C9.02037 10.875 7.93024 10.875 5.75 10.875C3.56976 10.875 2.47963 10.875 1.80232 10.1977C1.125 9.52037 1.125 8.43024 1.125 6.25Z" stroke="#141B34" stroke-width="2"/>
<path d="M1.125 24.75C1.125 22.5698 1.125 21.4797 1.80232 20.8023C2.47963 20.125 3.56976 20.125 5.75 20.125C7.93024 20.125 9.02037 20.125 9.69768 20.8023C10.375 21.4797 10.375 22.5698 10.375 24.75C10.375 26.9302 10.375 28.0203 9.69768 28.6977C9.02037 29.375 7.93024 29.375 5.75 29.375C3.56976 29.375 2.47963 29.375 1.80232 28.6977C1.125 28.0203 1.125 26.9302 1.125 24.75Z" stroke="#141B34" stroke-width="2"/>
<path d="M1.125 15.5H10.375" stroke="#141B34" stroke-width="2" stroke-linecap="round" stroke-linejoin="round"/>
<path d="M15 1.625V9.33333" stroke="#141B34" stroke-width="2" stroke-linecap="round" stroke-linejoin="round"/>
<path d="M19.625 6.25C19.625 4.06976 19.625 2.97963 20.3023 2.30232C20.9797 1.625 22.0698 1.625 24.25 1.625C26.4302 1.625 27.5203 1.625 28.1977 2.30232C28.875 2.97963 28.875 4.06976 28.875 6.25C28.875 8.43024 28.875 9.52037 28.1977 10.1977C27.5203 10.875 26.4302 10.875 24.25 10.875C22.0698 10.875 20.9797 10.875 20.3023 10.1977C19.625 9.52037 19.625 8.43024 19.625 6.25Z" stroke="#141B34" stroke-width="2"/>
<path d="M28.875 15.5H19.625C17.4448 15.5 16.3547 15.5 15.6773 16.1773C15 16.8547 15 17.9448 15 20.125M15 24.3942V28.6635M19.625 20.125V22.4375C19.625 24.6674 20.8332 24.75 22.7083 24.75C23.5598 24.75 24.25 25.4402 24.25 26.2917M21.1667 29.375H19.625M24.25 20.125C26.4302 20.125 27.5203 20.125 28.1977 20.8033C28.875 21.4815 28.875 22.5733 28.875 24.7566C28.875 26.9401 28.875 28.0317 28.1977 28.7101C27.7033 29.2051 26.9891 29.3389 25.7917 29.375" stroke="#141B34" stroke-width="2" stroke-linecap="round"/>
</svg>
