<svg width="24" height="24" viewBox="0 0 24 24" fill="none" xmlns="http://www.w3.org/2000/svg">
<path d="M16.3075 4.38359C15.7175 4.38359 15.4215 4.38359 15.1525 4.28359L15.0415 4.23759C14.7805 4.11759 14.5715 3.90959 14.1535 3.4916C13.1915 2.5296 12.7105 2.0486 12.1196 2.0036C12.0396 1.9988 11.9595 1.9988 11.8796 2.0036C11.2886 2.0486 10.8076 2.5296 9.84556 3.4916C9.42756 3.90959 9.21857 4.11859 8.95757 4.23759L8.84757 4.28359C8.57757 4.38359 8.28257 4.38359 7.69157 4.38359H7.58157C6.07458 4.38359 5.32059 4.38359 4.85159 4.85159C4.38259 5.31959 4.38359 6.07458 4.38359 7.58157V7.69157C4.38359 8.28157 4.38359 8.57757 4.28359 8.84657C4.26892 8.88457 4.25359 8.92157 4.23759 8.95757C4.11759 9.21857 3.90959 9.42756 3.4916 9.84556C2.5296 10.8076 2.0486 11.2886 2.0036 11.8796C1.9988 11.9595 1.9988 12.0396 2.0036 12.1196C2.0486 12.7105 2.5296 13.1915 3.4916 14.1535C3.90959 14.5715 4.11859 14.7805 4.23759 15.0415C4.25426 15.0775 4.26959 15.1142 4.28359 15.1515C4.38359 15.4215 4.38359 15.7165 4.38359 16.3075V16.4175C4.38359 17.9245 4.38359 18.6785 4.85159 19.1475C5.31959 19.6165 6.07458 19.6155 7.58157 19.6155H7.69157C8.28157 19.6155 8.57757 19.6155 8.84657 19.7155C8.88457 19.7295 8.92157 19.7448 8.95757 19.7615C9.21857 19.8815 9.42756 20.0895 9.84556 20.5075C10.8076 21.4695 11.2886 21.9505 11.8796 21.9955C11.9596 22.0015 12.0396 22.0015 12.1196 21.9955C12.7105 21.9505 13.1915 21.4695 14.1535 20.5075C14.5715 20.0895 14.7805 19.8815 15.0415 19.7615C15.0775 19.7448 15.1142 19.7295 15.1515 19.7155C15.4215 19.6155 15.7165 19.6155 16.3075 19.6155H16.4175C17.9245 19.6155 18.6785 19.6155 19.1475 19.1475C19.6165 18.6795 19.6155 17.9245 19.6155 16.4175V16.3075C19.6155 15.7175 19.6155 15.4215 19.7155 15.1525C19.7295 15.1145 19.7448 15.0775 19.7615 15.0415C19.8815 14.7805 20.0895 14.5715 20.5075 14.1535C21.4695 13.1915 21.9505 12.7105 21.9955 12.1196C22.0015 12.0396 22.0015 11.9596 21.9955 11.8796C21.9505 11.2886 21.4695 10.8076 20.5075 9.84556C20.0895 9.42756 19.8815 9.21857 19.7615 8.95757L19.7155 8.84757C19.6155 8.57757 19.6155 8.28257 19.6155 7.69157V7.58157C19.6155 6.07458 19.6155 5.32059 19.1475 4.85159C18.6795 4.38259 17.9245 4.38359 16.4175 4.38359H16.3075Z" stroke="#495057" stroke-width="1.5" stroke-linecap="round" stroke-linejoin="round"/>
<path d="M15.499 11.999C15.499 12.4586 15.4085 12.9138 15.2326 13.3384C15.0567 13.763 14.7989 14.1489 14.4739 14.4739C14.1489 14.7989 13.763 15.0567 13.3384 15.2326C12.9138 15.4085 12.4586 15.499 11.999 15.499C11.5394 15.499 11.0843 15.4085 10.6596 15.2326C10.235 15.0567 9.84915 14.7989 9.52414 14.4739C9.19914 14.1489 8.94133 13.763 8.76544 13.3384C8.58955 12.9138 8.49902 12.4586 8.49902 11.999C8.49902 11.0708 8.86777 10.1805 9.52414 9.52414C10.1805 8.86777 11.0708 8.49902 11.999 8.49902C12.9273 8.49902 13.8175 8.86777 14.4739 9.52414C15.1302 10.1805 15.499 11.0708 15.499 11.999Z" stroke="#495057" stroke-width="1.5" stroke-linecap="round" stroke-linejoin="round"/>
</svg>
