<svg width="91" height="91" viewBox="0 0 91 91" fill="none" xmlns="http://www.w3.org/2000/svg">
<path fill-rule="evenodd" clip-rule="evenodd" d="M45.5001 7.5835C66.441 7.5835 83.417 24.5595 83.417 45.5001C83.417 66.441 66.441 83.417 45.5001 83.417C24.5595 83.417 7.5835 66.441 7.5835 45.5001C7.5835 24.5595 24.5595 7.5835 45.5001 7.5835ZM45.5001 11.3751C26.6535 11.3751 11.3751 26.6535 11.3751 45.5001C11.3751 64.3469 26.6535 79.6252 45.5001 79.6252C64.3469 79.6252 79.6252 64.3469 79.6252 45.5001C79.6252 26.6535 64.3469 11.3751 45.5001 11.3751ZM59.8999 25.7403L65.2621 31.1026L50.8645 45.5001L65.2621 59.8977L59.8999 65.26L45.5023 50.8622L31.1315 65.2333L25.7693 59.8711L40.14 45.5001L25.7693 31.1294L31.1315 25.7672L45.5023 40.1379L59.8999 25.7403Z" fill="#C92A2A"/>
</svg>
