<svg width="24" height="24" viewBox="0 0 24 24" fill="none" xmlns="http://www.w3.org/2000/svg">
<path d="M3.23096 3.2765H5.63796L7.01346 2.25H16.6425L18.018 3.2765H20.769V11.145C20.769 19.0105 11.828 21.75 11.828 21.75C11.828 21.75 3.23096 19.033 3.23096 11.145V3.2765Z" stroke="#495057" stroke-width="1.5" stroke-linecap="round" stroke-linejoin="round"/>
<path d="M11.8282 11.8291V13.5661M8.38916 9.43408H15.2672V13.1976C15.2672 14.8101 13.4492 16.6186 11.8282 16.6186C10.2072 16.6186 8.38916 14.8101 8.38916 13.1976V9.43408Z" stroke="#495057" stroke-width="1.5" stroke-linecap="round" stroke-linejoin="round"/>
<path d="M9.4209 9.43402V8.03902C9.48765 7.42482 9.76303 6.85208 10.2011 6.4164C10.6391 5.98072 11.2133 5.70845 11.8279 5.64502C12.4427 5.70838 13.0171 5.98075 13.4553 6.41664C13.8935 6.85253 14.1688 7.42556 14.2354 8.04002V9.43502" stroke="#495057" stroke-width="1.5" stroke-linecap="round" stroke-linejoin="round"/>
</svg>
