<svg width="32" height="32" viewBox="0 0 32 32" fill="none" xmlns="http://www.w3.org/2000/svg">
<path d="M9.33333 9.33337H20M9.33333 16H16.6667M9.33333 22.6667H14.6667" stroke="#141B34" stroke-width="1.5" stroke-linecap="round" stroke-linejoin="round"/>
<path d="M26 14.6666V13.3333C26 8.30497 26 5.79083 24.4379 4.22872C22.8759 2.66663 20.3616 2.66663 15.3333 2.66663H14.0001C8.97186 2.66663 6.45771 2.66663 4.89562 4.22871C3.33353 5.79079 3.33351 8.30492 3.33346 13.3332L3.33342 18.6665C3.33338 23.6949 3.33335 26.209 4.89545 27.7712C6.45755 29.3333 8.97173 29.3333 14.0001 29.3333H18.6667" stroke="#141B34" stroke-width="1.5" stroke-linecap="round" stroke-linejoin="round"/>
<path d="M24.6667 25.3333H22.7672C21.5617 25.3333 20.9589 25.3333 20.7379 24.995C20.5167 24.6569 20.8268 24.2093 21.4471 23.314L22.0512 22.442C22.2025 22.2236 22.2781 22.1144 22.3027 21.9917C22.3272 21.8692 22.2984 21.7444 22.2407 21.4945L21.9559 20.2614C21.7855 19.5236 21.7004 19.1546 21.9313 18.9106C22.1623 18.6666 22.5967 18.6666 23.4656 18.6666H25.8677C26.7367 18.6666 27.1711 18.6666 27.402 18.9106C27.6331 19.1546 27.5479 19.5236 27.3775 20.2614L27.0927 21.4945C27.0349 21.7444 27.0061 21.8692 27.0307 21.9917C27.0552 22.1144 27.1308 22.2236 27.2821 22.442L27.8863 23.314C28.5065 24.2093 28.8167 24.6569 28.5955 24.995C28.3744 25.3333 27.7716 25.3333 26.5661 25.3333H24.6667ZM24.6667 25.3333V29.3333" stroke="#141B34" stroke-width="1.5" stroke-linecap="round" stroke-linejoin="round"/>
</svg>
