<svg width="33" height="32" viewBox="0 0 33 32" fill="none" xmlns="http://www.w3.org/2000/svg">
<path d="M6.2878 22.5041L4.73715 13.2474C4.48492 11.7417 4.35881 10.9889 4.74716 10.4944C5.13549 10 5.85291 10 7.28772 10H25.7123C27.1471 10 27.8645 10 28.2528 10.4944C28.6412 10.9889 28.5151 11.7417 28.2628 13.2474L26.7121 22.5041C26.1653 25.7685 25.892 27.4007 24.8092 28.3669C23.7265 29.3333 22.1712 29.3333 19.0605 29.3333H13.9395C10.8289 29.3333 9.27352 29.3333 8.19079 28.3669C7.10804 27.4007 6.83463 25.7685 6.2878 22.5041Z" stroke="#141B34" stroke-width="1.5"/>
<path d="M9.83334 9.99996V9.33329C9.83334 5.6514 12.8181 2.66663 16.5 2.66663C20.1819 2.66663 23.1667 5.6514 23.1667 9.33329V9.99996" stroke="#141B34" stroke-width="1.5"/>
<path d="M6.5 23.3334H26.5" stroke="#141B34" stroke-width="1.5"/>
</svg>
