<svg width="32" height="32" viewBox="0 0 32 32" fill="none" xmlns="http://www.w3.org/2000/svg">
<path d="M8.77667 9.65052C12.7861 10.3574 15.1757 11.836 16 12.6848C16.8243 11.836 19.2139 10.3574 23.2233 9.65052C25.2545 9.29243 26.2701 9.11339 27.1351 9.79964C28 10.4859 28 11.6003 28 13.8291V21.8388C28 23.8768 28 24.8958 27.4449 25.5319C26.8897 26.168 25.6676 26.3835 23.2233 26.8144C21.0444 27.1986 19.3439 27.8106 18.1129 28.4256C16.902 29.0308 16.2964 29.3334 16 29.3334C15.7036 29.3334 15.098 29.0308 13.8871 28.4256C12.6561 27.8106 10.9556 27.1986 8.77667 26.8144C6.33239 26.3835 5.11024 26.168 4.55512 25.5319C4 24.8958 4 23.8768 4 21.8388V13.8291C4 11.6003 4 10.4859 4.86493 9.79964C5.72988 9.11339 6.74548 9.29243 8.77667 9.65052Z" stroke="#141B34" stroke-width="1.5" stroke-linecap="round" stroke-linejoin="round"/>
<path d="M16 12V29.3333" stroke="#141B34" stroke-width="1.5" stroke-linejoin="round"/>
<path d="M11.3333 4.07805C12.6818 3.18392 14.2785 2.66663 15.9901 2.66663C17.71 2.66663 19.314 3.18899 20.6667 4.09117M18.1629 7.33329C17.5228 6.94696 16.7809 6.72608 15.9901 6.72608C15.2077 6.72608 14.4733 6.94228 13.8379 7.321" stroke="#141B34" stroke-width="1.5" stroke-linecap="round"/>
</svg>
